<?xml version="1.0" standalone="no"?>
<!DOCTYPE svg PUBLIC "-//W3C//DTD SVG 20010904//EN"
 "http://www.w3.org/TR/2001/REC-SVG-20010904/DTD/svg10.dtd">
<svg version="1.0" xmlns="http://www.w3.org/2000/svg"
 width="460.000000pt" height="210.000000pt" viewBox="0 0 460.000000 210.000000"
 preserveAspectRatio="xMidYMid meet">
<metadata>
Created by potrace 1.15, written by Peter Selinger 2001-2017
</metadata>
<g transform="translate(0.000000,210.000000) scale(0.100000,-0.100000)"
fill="#000000" stroke="none">
<path d="M3047 2062 c-72 -40 -106 -69 -180 -156 -61 -71 -77 -102 -77 -149 0
-36 26 -85 47 -90 15 -4 70 -83 77 -111 5 -22 10 -26 21 -16 15 12 39 4 83
-31 22 -17 14 -38 -8 -24 -6 4 -24 3 -41 0 -23 -5 -29 -11 -23 -23 4 -10 6
-25 6 -34 -1 -21 2 -21 26 -9 9 5 32 15 50 21 27 11 30 15 20 28 -23 27 34 -8
64 -40 14 -15 33 -28 42 -28 9 0 16 -4 16 -9 0 -5 10 -11 23 -15 48 -12 116
-66 128 -103 14 -43 6 -191 -12 -225 -21 -39 -71 -97 -88 -102 -9 -3 11 -3 44
0 63 5 135 -15 135 -38 0 -16 77 -97 86 -90 3 4 3 -4 -1 -17 -4 -15 -3 -21 3
-17 5 3 13 -5 16 -19 4 -14 11 -25 16 -25 11 0 14 -43 3 -53 -6 -7 -83 116
-83 132 0 12 -50 67 -51 56 0 -5 -5 1 -10 14 -16 39 -22 16 -10 -36 13 -54 4
-95 -27 -120 -15 -13 -15 -13 6 -8 21 6 23 4 17 -16 -4 -13 -14 -29 -21 -37
-22 -21 -22 -36 1 -247 17 -164 35 -238 68 -279 21 -24 25 -25 61 -15 29 8 36
13 25 20 -8 5 -11 9 -7 9 3 0 -1 21 -9 48 -44 140 -44 142 -12 171 16 15 36
50 46 81 9 30 25 63 34 73 9 10 24 36 34 57 19 42 32 50 41 25 9 -21 24 -8 24
21 0 13 4 24 9 24 30 0 10 -79 -33 -130 -14 -18 -24 -36 -21 -41 8 -11 -21
-66 -37 -72 -7 -2 -10 -8 -5 -12 4 -5 25 1 46 13 39 22 43 19 27 -20 -12 -26
3 -43 19 -21 19 26 30 8 11 -19 -36 -51 -5 -66 43 -20 19 18 37 54 56 115 30
97 62 150 135 228 32 34 53 68 65 104 l16 54 37 -6 c34 -6 36 -5 23 10 -11 14
-11 17 0 17 22 0 -5 20 -47 35 -22 8 -38 19 -36 25 1 6 -2 9 -8 5 -14 -9 -80
55 -97 94 -8 18 -13 34 -11 36 2 1 33 -31 71 -71 37 -41 70 -73 73 -73 12 3
84 -43 79 -51 -3 -4 3 -6 13 -3 20 5 136 -36 178 -63 21 -15 26 -15 23 -4 -3
8 -35 30 -72 49 -67 34 -67 34 -62 70 4 35 4 35 -7 9 -11 -27 -28 -38 -28 -19
0 4 -14 26 -31 47 -27 34 -59 95 -59 112 0 3 11 -9 25 -28 14 -19 25 -32 25
-29 0 12 -42 134 -49 143 -4 6 -11 19 -14 29 -14 39 15 3 53 -66 22 -40 40
-69 40 -65 0 14 -43 123 -56 143 -8 11 -14 26 -14 34 0 14 -45 91 -81 139 -17
22 -17 20 -12 -40 3 -35 3 -61 0 -58 -9 9 -58 261 -52 270 3 4 -2 13 -10 20
-13 11 -15 6 -16 -36 l-1 -49 -9 50 c-5 28 -13 58 -19 67 -5 9 -13 36 -16 60
-4 24 -11 52 -17 63 -10 19 -10 19 -18 0 -6 -16 -8 -15 -8 10 0 17 6 38 13 48
14 18 15 18 25 0 8 -14 9 -9 4 22 -5 39 -21 88 -59 186 -16 44 -16 48 -1 64
20 19 20 21 7 46 -10 18 -24 19 -328 19 l-317 0 -68 -38z"/>
<path d="M555 1915 c-16 -7 -60 -24 -97 -36 -40 -13 -68 -28 -68 -36 0 -8 -4
-11 -10 -8 -5 3 -10 0 -10 -8 0 -8 -28 -38 -62 -66 l-63 -53 0 -156 c1 -216
26 -342 75 -382 4 -3 25 -43 48 -90 30 -62 49 -90 72 -102 31 -18 31 -18 24 5
-17 56 -37 92 -68 125 -19 19 -44 61 -56 93 -19 51 -20 61 -8 86 19 40 55 41
115 4 26 -17 42 -31 36 -31 -8 0 -11 -11 -8 -32 l5 -33 -11 28 c-12 30 -26 31
-43 4 -14 -22 16 -84 49 -99 32 -15 41 -5 26 28 -23 51 15 88 52 51 10 -10 28
-17 40 -15 20 3 23 10 27 76 4 64 9 77 35 105 58 61 58 61 34 101 -37 63 -8
126 57 126 9 0 48 11 87 24 87 28 213 48 247 39 13 -4 32 -16 42 -27 19 -23
23 -10 9 26 -40 105 -43 108 -125 162 -86 57 -113 68 -216 86 -106 19 -201 21
-235 5z"/>
<path d="M817 1378 c-15 -11 -27 -26 -27 -34 0 -8 1 -14 3 -14 1 0 27 7 57 15
70 19 91 19 84 1 -6 -16 -45 -33 -84 -38 -15 -2 -26 -11 -28 -21 -3 -16 0 -18
20 -12 12 4 30 14 39 21 20 18 29 18 29 -1 0 -10 10 -15 30 -15 21 0 30 5 30
16 0 8 5 12 11 9 6 -4 8 -13 5 -21 -10 -26 13 -14 27 14 16 32 11 62 -10 62
-12 0 -13 3 -4 14 17 20 -9 27 -90 25 -47 -1 -73 -7 -92 -21z"/>
<path d="M665 859 c-4 -5 0 -18 9 -28 9 -10 16 -29 16 -43 0 -14 10 -38 21
-53 17 -21 28 -26 52 -22 20 3 36 -2 49 -15 23 -23 65 -23 105 1 17 11 51 21
75 23 39 3 41 4 22 15 -11 6 -31 14 -45 16 -13 2 -32 7 -41 11 -9 4 -21 5 -26
2 -5 -3 -24 6 -42 19 -18 13 -46 27 -63 31 -18 4 -48 17 -69 30 -42 27 -54 29
-63 13z"/>
<path d="M333 778 c-13 -6 -23 -15 -23 -19 0 -4 -19 -17 -42 -27 -24 -11 -54
-32 -68 -46 -21 -24 -25 -37 -24 -90 0 -34 9 -84 20 -111 34 -90 89 -190 106
-193 30 -6 30 33 -1 94 -58 114 -73 149 -78 195 -6 55 1 71 47 103 l34 23 51
-38 c124 -93 155 -132 155 -192 0 -34 22 -50 44 -34 16 11 15 16 -3 70 -27 77
-61 119 -137 167 -52 33 -64 45 -64 66 0 20 4 25 16 20 8 -3 22 1 30 9 14 13
12 15 -13 14 -15 0 -38 -5 -50 -11z"/>
<path d="M933 511 c-7 -27 -61 -36 -103 -17 -20 8 -140 -67 -140 -88 0 -8 9
-18 20 -21 11 -3 20 -13 20 -21 0 -18 59 -83 60 -65 0 8 9 2 21 -13 18 -22 21
-36 16 -75 l-6 -47 60 -48 c33 -27 72 -64 86 -82 36 -48 68 -46 77 3 3 21 6
58 5 83 0 36 -2 40 -9 24 -5 -12 -14 -25 -21 -30 -9 -5 -10 -2 -6 10 4 10 10
35 13 57 7 43 -6 53 -24 17 l-11 -23 0 26 c-1 14 6 34 14 45 8 10 15 22 15 26
0 4 -23 30 -51 57 -29 28 -49 51 -45 51 15 0 52 -23 68 -44 16 -20 18 -20 18
-2 0 10 -24 43 -53 73 -58 57 -48 76 11 21 33 -31 34 -32 29 -9 -4 14 0 29 9
38 21 21 18 31 -18 53 -41 25 -49 25 -55 1z"/>
<path d="M1280 248 c-11 -18 -20 -37 -20 -43 -1 -5 12 -54 27 -107 24 -85 31
-98 49 -98 18 0 21 5 18 23 l-5 22 10 -22 c10 -23 41 -32 41 -13 0 22 -84 270
-92 270 -5 0 -17 -15 -28 -32z"/>
</g>
</svg>
