<?xml version="1.0" standalone="no"?>
<!DOCTYPE svg PUBLIC "-//W3C//DTD SVG 20010904//EN"
 "http://www.w3.org/TR/2001/REC-SVG-20010904/DTD/svg10.dtd">
<svg version="1.0" xmlns="http://www.w3.org/2000/svg"
 width="1080.000000pt" height="475.000000pt" viewBox="0 0 1080.000000 475.000000"
 preserveAspectRatio="xMidYMid meet">
<metadata>
Created by potrace 1.15, written by Peter Selinger 2001-2017
</metadata>
<g transform="translate(0.000000,475.000000) scale(0.100000,-0.100000)"
fill="#000000" stroke="none">
<path d="M1090 4680 c0 -39 -4 -70 -10 -70 -5 0 -61 20 -123 45 -63 25 -117
45 -121 45 -3 0 -6 -13 -6 -30 0 -16 4 -30 8 -30 5 0 12 -80 16 -177 3 -97 8
-178 10 -180 2 -2 13 -5 25 -8 11 -2 26 -7 31 -10 6 -4 10 47 10 144 l0 151
38 2 c20 1 53 2 72 3 75 3 70 -4 70 95 0 53 -4 90 -10 90 -6 0 -10 -30 -10
-70z"/>
<path d="M1164 4737 c-2 -7 -3 -62 -2 -122 l3 -109 38 -9 c35 -9 37 -11 37
-48 0 -37 3 -41 43 -57 23 -10 62 -24 87 -31 25 -7 52 -16 60 -20 8 -4 35 -8
60 -10 64 -4 120 -29 120 -53 0 -11 5 -18 13 -15 6 2 12 14 11 26 -1 25 0 25
18 8 17 -16 289 -107 322 -107 20 0 25 -6 28 -27 2 -24 8 -28 33 -28 25 -1 31
-5 35 -30 7 -41 47 -49 48 -10 0 35 2 36 50 20 23 -8 55 -12 72 -9 27 6 30 4
30 -20 0 -22 4 -26 30 -26 17 0 30 -4 30 -9 0 -5 11 -8 26 -7 19 1 24 5 20 19
-2 10 2 17 11 17 8 0 17 -9 20 -20 3 -11 12 -20 21 -20 8 0 13 3 9 6 -7 7 12
28 33 37 10 3 11 6 2 6 -7 1 -67 21 -135 45 -67 25 -288 103 -492 176 -203 72
-393 140 -422 151 l-52 21 6 111 c3 62 7 113 8 115 2 2 95 -36 625 -258 533
-223 667 -278 910 -376 l255 -102 3 -52 c5 -86 8 -85 -135 -35 -70 24 -129 42
-131 40 -2 -2 2 -17 9 -33 10 -23 25 -33 66 -46 31 -10 53 -23 53 -31 0 -24
16 -25 41 -4 28 24 53 21 55 -6 1 -11 2 -25 3 -31 1 -6 13 -9 29 -7 15 2 47
-3 72 -11 98 -31 155 -55 158 -65 2 -6 28 -11 58 -11 61 0 94 -13 94 -35 0 -8
3 -14 8 -14 4 1 10 0 15 -1 4 -1 10 -3 15 -4 22 -5 52 -29 52 -42 0 -11 4 -12
18 -5 29 15 152 -17 152 -41 0 -4 5 -8 10 -8 6 0 10 9 10 21 0 16 6 20 28 19
72 -5 89 -12 -312 133 l-290 105 3 58 c1 33 4 61 7 63 2 2 38 -10 80 -28 42
-18 78 -30 81 -27 2 2 -5 7 -16 11 -12 3 -21 11 -21 16 0 6 -4 8 -10 4 -5 -3
-32 6 -59 20 -29 14 -68 25 -93 26 -39 0 -41 1 -20 12 35 16 146 -24 402 -146
36 -17 68 -30 73 -29 4 1 7 -2 7 -8 0 -5 -2 -10 -5 -10 -11 0 -81 36 -87 45
-4 6 -8 7 -8 3 0 -4 -12 -3 -27 3 -16 6 -23 6 -18 1 20 -18 166 -72 177 -66 6
4 8 3 5 -3 -3 -5 33 -26 83 -45 l90 -36 0 31 c0 30 -5 34 -83 69 -45 21 -145
66 -222 101 -263 121 -329 147 -388 153 -51 6 -57 5 -51 -10 8 -21 9 -21 -83
13 -219 82 -1539 638 -1663 701 -31 16 -59 20 -140 20 -74 0 -102 -3 -106 -13z"/>
<path d="M2599 4465 l564 -286 76 7 75 7 -40 12 c-21 7 -88 37 -148 68 -60 32
-115 57 -123 57 -7 0 -13 4 -13 8 0 5 -19 19 -42 32 -24 13 -54 31 -68 40 -95
64 -554 300 -582 300 -8 0 -24 7 -37 17 -17 12 -52 17 -125 20 l-101 4 564
-286z"/>
<path d="M8645 4688 c-119 -65 -1004 -515 -1128 -573 -27 -13 -35 -20 -25 -26
21 -13 -2 -27 -52 -33 -63 -7 -449 -203 -522 -265 -9 -8 -23 -16 -30 -17 -43
-6 -100 -27 -91 -32 15 -11 24 -42 11 -42 -6 0 -9 -2 -6 -5 10 -11 74 27 84
48 11 26 27 34 239 128 88 38 193 86 233 105 39 19 76 34 81 34 5 0 31 15 57
33 27 18 74 41 104 51 30 10 71 27 90 37 45 23 148 70 230 104 36 15 93 40
126 56 34 16 65 29 69 29 3 0 80 36 171 80 90 44 166 80 169 80 2 0 53 23 112
51 60 28 187 87 283 131 96 44 177 82 179 84 2 2 -58 4 -135 3 l-139 0 -110
-61z"/>
<path d="M8960 4696 c-63 -29 -349 -162 -635 -296 -498 -232 -704 -327 -807
-372 -27 -11 -48 -24 -48 -29 0 -4 37 9 83 30 117 54 160 74 262 119 81 36
573 260 1100 501 109 51 201 94 204 96 2 3 -7 5 -20 5 -13 0 -76 -24 -139 -54z"/>
<path d="M9140 4636 l0 -113 -422 -171 c-233 -93 -517 -207 -633 -253 -115
-45 -298 -117 -405 -160 l-195 -77 -5 56 -5 57 -37 3 c-23 2 -52 -5 -77 -18
-51 -25 -54 -36 -5 -15 20 8 38 15 41 15 2 0 3 -29 2 -64 l-2 -63 -166 -68
c-202 -83 -270 -114 -294 -138 -12 -12 -27 -17 -39 -13 -12 3 -35 -2 -52 -11
-29 -15 -30 -16 -9 -24 14 -5 40 0 79 16 33 14 69 25 82 25 20 0 22 -4 20 -37
-2 -21 2 -39 7 -40 6 -1 9 13 7 32 -2 28 3 38 30 58 36 27 93 49 102 40 3 -4
6 -1 6 5 0 6 7 9 17 5 11 -4 14 -3 9 5 -5 8 -2 10 8 6 27 -10 19 -32 -9 -26
-25 4 -35 -11 -15 -23 6 -3 10 -17 10 -31 0 -21 5 -24 35 -24 33 0 35 2 35 34
0 79 9 94 63 112 29 9 58 23 65 31 8 7 17 11 21 8 5 -2 6 7 3 20 -3 20 0 25
17 25 12 0 21 -6 21 -15 0 -8 7 -15 15 -15 11 0 15 -12 15 -44 0 -53 10 -106
20 -106 4 0 8 43 8 95 1 74 6 99 19 115 22 25 53 26 53 2 0 -10 2 -21 5 -24 3
-3 40 12 83 33 42 22 87 39 100 39 13 0 21 4 17 10 -3 5 -12 7 -20 3 -10 -3
-15 2 -15 16 0 28 45 30 53 2 3 -15 11 -18 27 -14 32 9 70 47 70 72 0 16 6 21
25 21 18 0 25 -5 25 -19 0 -11 5 -23 12 -27 8 -5 6 -11 -6 -20 -10 -7 -15 -18
-11 -25 6 -8 10 -7 17 5 18 32 25 15 27 -61 3 -109 11 -105 11 5 0 67 4 94 15
106 8 8 15 19 15 25 0 13 45 25 66 17 8 -3 13 -10 9 -15 -11 -18 15 -22 33 -5
16 17 16 18 -1 11 -14 -5 -20 -2 -24 13 -4 15 -11 19 -24 15 -15 -5 -19 -1
-19 19 0 21 5 26 25 26 18 0 25 -5 25 -20 0 -32 21 -33 101 -4 96 34 149 69
149 100 0 17 7 25 24 30 31 7 46 -1 46 -27 0 -10 3 -18 8 -18 21 4 42 -2 42
-12 0 -5 -3 -8 -7 -6 -8 5 -5 -204 2 -212 2 -1 8 0 14 4 7 4 11 52 11 126 0
73 4 119 10 119 6 0 10 -9 10 -19 0 -11 6 -22 13 -24 10 -4 10 -6 0 -6 -10 -1
-13 -26 -13 -91 0 -73 3 -90 15 -90 13 0 15 20 15 123 0 110 2 126 19 141 11
10 21 30 23 45 2 21 9 27 34 29 26 3 33 -1 38 -22 5 -19 11 -23 27 -19 16 4
17 8 7 14 -9 6 -6 9 11 9 33 0 161 39 161 49 0 4 6 8 13 8 23 0 107 35 107 45
0 5 10 6 21 3 16 -5 19 -4 14 5 -5 9 -1 10 15 5 16 -5 20 -4 15 5 -5 9 -1 10
15 5 17 -5 21 -4 15 5 -5 8 -4 11 2 7 6 -4 44 7 85 24 94 39 146 45 158 15 5
-13 10 46 12 152 l3 172 -107 0 -108 0 0 -114z"/>
<path d="M9370 4675 l0 -75 55 0 c37 0 72 8 112 26 171 78 242 106 283 114 34
6 16 8 -70 6 l-115 -2 -112 -52 c-62 -29 -117 -52 -123 -52 -6 0 -10 23 -10
55 0 30 -4 55 -10 55 -6 0 -10 -32 -10 -75z"/>
<path d="M10665 4641 c-75 -26 -111 -43 -113 -54 -2 -9 -9 -17 -15 -17 -41 -1
-127 -13 -155 -22 l-33 -10 24 -23 c16 -17 37 -25 68 -27 59 -4 59 -23 0 -26
-35 -1 -42 1 -31 9 10 7 11 9 2 7 -24 -6 -16 -23 14 -29 27 -6 27 -7 -9 -8
-35 -1 -74 -19 -105 -48 -7 -7 -25 -15 -40 -18 -15 -3 -45 -10 -67 -16 -22 -6
-53 -13 -70 -15 -16 -3 -39 -9 -50 -14 -11 -4 -67 -20 -125 -35 -58 -15 -132
-35 -165 -45 -94 -28 -142 -33 -169 -15 -21 14 -27 13 -82 -16 -52 -27 -70
-31 -159 -34 -74 -3 -120 -10 -175 -29 -41 -14 -83 -26 -92 -26 -21 0 -25 -38
-5 -45 6 -3 48 -8 92 -12 80 -8 80 -8 83 -38 l3 -30 -191 3 c-159 2 -201 0
-250 -15 -32 -9 -56 -21 -54 -25 3 -4 -1 -5 -8 -3 -8 3 -53 -8 -101 -25 -48
-16 -98 -30 -111 -30 -14 0 -32 -7 -40 -16 -9 -8 -20 -13 -25 -10 -5 3 -31 -3
-57 -13 -27 -10 -103 -29 -169 -41 -66 -13 -124 -27 -129 -31 -6 -5 -21 -9
-34 -9 -16 0 -22 -4 -19 -14 8 -20 -35 -40 -64 -30 -13 4 -30 9 -37 10 -20 4
-80 -15 -94 -30 -8 -7 -58 -20 -113 -30 -114 -19 -175 -36 -175 -47 0 -11 25
-16 154 -29 128 -12 156 -28 154 -87 -1 -18 4 -39 10 -45 9 -9 12 -8 12 5 0
12 8 17 31 17 16 0 28 4 25 9 -3 5 18 11 47 13 28 2 54 0 55 -4 6 -13 29 -9
35 6 5 13 -37 26 -83 26 -13 0 -13 -1 0 -11 12 -7 8 -9 -15 -7 -28 3 -30 6
-30 43 0 36 4 42 38 59 21 10 55 19 76 20 22 0 37 4 35 8 -3 4 8 10 23 14 15
3 36 8 45 11 45 12 68 13 68 3 0 -6 -6 -8 -12 -4 -10 5 -10 4 -1 -6 6 -7 9
-19 6 -26 -6 -16 13 -19 22 -4 3 6 16 10 28 10 20 1 20 2 -6 16 -36 19 -27 31
28 40 32 4 55 2 78 -9 20 -10 36 -12 41 -6 6 5 28 9 50 9 23 0 59 3 81 7 36 6
38 7 15 14 -24 7 -24 7 5 9 17 1 40 3 52 3 14 0 19 5 16 13 -3 9 2 14 16 14
14 0 21 -6 21 -20 0 -13 7 -20 20 -20 14 0 20 7 20 24 0 24 20 39 43 31 13 -5
102 -13 160 -14 20 -1 37 -5 37 -9 0 -5 -15 -7 -32 -4 -26 3 -30 2 -22 -8 13
-13 7 -50 -8 -50 -5 0 -4 10 3 21 9 17 8 20 -3 17 -7 -3 -13 -9 -14 -14 0 -5
-6 -34 -12 -64 -7 -30 -15 -73 -17 -94 -3 -22 -7 -42 -10 -44 -2 -2 -18 1 -36
7 -17 6 -35 8 -40 5 -11 -6 -12 -38 -1 -48 4 -4 7 -28 7 -52 1 -74 -20 -44
-25 37 l-5 74 -8 -77 -9 -77 -34 -7 c-35 -6 -46 -27 -18 -38 24 -9 46 -7 39 4
-3 6 -2 10 4 10 5 0 13 -5 17 -12 5 -7 10 -4 15 10 11 28 22 28 34 0 13 -29
38 -34 59 -13 9 9 16 12 16 6 0 -16 32 -13 54 4 11 8 35 15 53 15 32 0 33 1
33 41 0 48 15 44 24 -7 6 -29 11 -35 29 -32 20 3 22 8 19 63 l-3 60 24 -27
c26 -32 39 -35 57 -13 7 8 19 15 27 15 18 0 44 25 36 34 -4 3 -1 6 5 6 9 0 12
-36 12 -124 l0 -124 -67 -12 c-87 -15 -295 -2 -317 20 -13 13 -46 13 -46 0 0
-5 4 -10 10 -10 5 0 7 -6 4 -14 -3 -7 2 -20 10 -28 10 -11 13 -27 9 -57 -5
-33 -3 -41 11 -41 9 0 16 4 16 9 0 5 8 11 17 13 16 3 15 5 -4 23 -11 11 -24
31 -28 44 -7 23 -6 23 40 16 28 -4 50 -3 54 3 4 6 11 4 19 -4 10 -12 10 -14
-3 -14 -8 0 -15 -7 -15 -15 0 -9 7 -15 16 -13 10 2 18 -3 20 -10 1 -7 0 -8 -3
-2 -3 7 -12 5 -26 -7 -11 -10 -17 -12 -13 -5 4 6 3 12 -2 12 -6 0 -12 -6 -15
-14 -6 -14 43 -31 53 -18 9 13 71 7 79 -7 6 -9 11 -10 15 -2 4 6 3 11 -2 11
-6 0 -4 16 3 38 13 36 14 37 69 40 l56 3 0 -35 c0 -44 9 -66 26 -66 8 0 14
-10 14 -25 0 -22 4 -25 36 -25 l35 0 -2 223 -2 222 64 -3 c65 -4 85 -12 126
-51 20 -19 28 -20 60 -12 21 6 44 20 51 31 7 11 18 18 24 14 7 -4 8 -3 4 5
-10 15 6 20 89 25 39 3 93 7 120 10 28 2 104 9 169 15 65 6 128 14 140 16 12
3 44 7 71 9 28 3 88 12 135 20 106 21 257 37 333 37 l57 -1 0 115 c0 105 -2
115 -18 115 -24 0 -203 -30 -222 -37 -8 -3 -26 -7 -40 -9 -84 -10 -164 -24
-168 -29 -3 -3 1 -5 8 -5 12 0 39 -28 40 -41 0 -4 -10 -7 -22 -8 -38 -1 -169
-19 -233 -31 -33 -6 -76 -13 -95 -16 -19 -3 -62 -9 -95 -14 -55 -9 -99 -14
-210 -26 -22 -2 -54 -6 -72 -9 -18 -2 -35 0 -39 6 -4 7 -20 8 -43 4 -20 -4
-61 -9 -91 -11 -30 -3 -108 -13 -175 -24 -190 -30 -235 -34 -235 -21 0 6 7 11
15 11 18 0 18 -3 16 134 -1 96 1 111 18 127 13 12 21 14 23 7 3 -8 23 -7 74 5
38 9 84 17 102 17 31 0 32 1 32 45 0 25 -4 45 -10 45 -5 0 -10 16 -10 35 l0
35 63 -6 c34 -4 72 -13 84 -20 31 -19 40 -18 156 17 190 57 217 63 295 60 30
-1 32 -3 32 -36 0 -31 3 -35 23 -31 39 7 57 18 57 32 0 8 7 14 16 14 8 0 13 4
10 9 -3 5 1 14 9 21 8 7 15 21 15 32 0 14 6 19 23 16 12 -2 23 -10 23 -18 1
-8 2 -22 3 -30 1 -15 19 10 41 58 12 28 57 28 52 0 -4 -28 24 -21 44 10 10 15
17 30 16 35 -1 4 9 7 23 7 14 0 25 -4 25 -10 0 -19 2 -25 11 -37 7 -7 5 -13
-3 -16 -7 -2 5 -7 27 -11 38 -7 98 -1 116 10 4 2 66 15 138 28 72 14 135 27
141 31 16 10 14 455 -2 454 -7 -1 -62 -18 -123 -38z"/>
<path d="M0 4381 l0 -118 77 -7 c44 -3 80 -11 85 -19 6 -9 10 -9 16 0 5 8 25
8 77 -3 143 -30 300 -68 310 -75 6 -3 26 -10 45 -14 86 -17 166 -56 193 -95 7
-11 17 -17 22 -12 5 4 5 2 2 -4 -4 -6 1 -27 10 -45 13 -26 18 -70 21 -176 4
-132 6 -143 23 -143 17 0 19 9 19 115 0 96 3 115 15 115 10 0 15 10 15 28 0
34 69 92 110 92 15 0 48 3 74 6 l46 7 0 -150 c0 -148 0 -151 23 -157 45 -12
47 -10 47 72 0 42 5 84 10 92 5 8 10 11 10 5 1 -5 8 4 16 20 8 17 12 22 10 13
-3 -10 0 -20 6 -24 6 -4 8 -3 5 3 -14 23 31 40 123 47 19 2 42 6 50 9 8 3 55
10 105 16 49 6 91 15 93 21 2 5 4 13 5 17 1 4 -101 6 -228 5 -202 -3 -228 -2
-210 11 11 8 51 18 88 22 45 4 70 12 74 21 8 21 6 22 -96 49 -88 24 -231 34
-200 14 11 -7 11 -9 -3 -9 -9 0 -19 4 -23 9 -3 5 -21 7 -40 4 -39 -6 -86 3
-82 16 1 5 -7 16 -18 25 l-20 15 20 -3 c11 -2 14 -1 8 1 -16 6 -17 23 -1 23 6
0 9 3 5 6 -6 7 -39 -10 -38 -19 3 -20 0 -27 -12 -27 -7 0 -18 -14 -24 -31 -12
-30 -13 -31 -59 -24 -89 12 -310 64 -489 116 -38 11 -108 32 -155 45 -47 14
-93 29 -102 34 -10 6 -25 10 -34 10 -9 0 -14 7 -12 18 2 10 12 16 23 15 24 -2
84 29 68 34 -18 6 -16 23 2 23 8 0 15 7 15 15 0 8 5 15 11 15 5 0 7 -4 4 -10
-3 -5 -1 -10 5 -10 7 0 10 6 8 12 -3 7 -37 22 -76 34 l-72 22 0 -117z"/>
<path d="M2547 4040 c3 -11 9 -23 14 -26 5 -3 9 -16 9 -28 0 -15 7 -26 20 -29
18 -5 20 -14 20 -85 0 -80 7 -96 38 -84 14 5 16 32 2 32 -6 0 -10 30 -10 69 0
54 3 70 16 75 9 4 14 13 10 21 -7 18 2 19 37 3 15 -7 27 -21 27 -30 0 -12 8
-18 25 -18 18 0 23 -4 19 -15 -5 -12 2 -15 30 -15 20 0 36 4 36 10 0 5 -8 6
-17 3 -16 -6 -16 -5 -5 10 15 18 46 11 38 -8 -3 -8 2 -16 11 -19 21 -8 31 3
14 14 -11 6 -10 9 4 11 10 2 -12 14 -51 28 -38 12 -109 38 -159 56 -135 50
-134 49 -128 25z"/>
<path d="M2003 3845 c-17 -18 -20 -29 -14 -55 6 -32 10 -34 70 -46 35 -7 66
-16 69 -19 3 -3 12 1 21 9 10 8 74 20 161 31 79 9 148 19 152 21 16 10 7 24
-16 24 -13 0 -26 5 -28 11 -3 8 -47 13 -128 16 -69 2 -145 7 -170 10 -25 4
-51 5 -58 4 -8 -1 -19 2 -25 7 -8 6 -19 2 -34 -13z"/>
<path d="M0 3685 c0 -41 4 -75 8 -75 5 0 17 6 28 14 21 16 57 15 329 -10 178
-16 387 -53 379 -66 -3 -4 0 -8 6 -8 19 0 88 -78 99 -112 8 -23 8 -44 1 -68
-10 -36 -2 -50 33 -50 15 0 17 -12 17 -120 0 -116 1 -120 21 -120 22 0 22 1
17 178 l-5 179 37 31 c32 26 48 32 114 38 70 6 76 5 78 -12 1 -11 2 -84 2
-164 l1 -145 33 -3 32 -3 0 95 c0 97 7 137 20 116 5 -8 11 -7 23 4 8 9 25 16
36 16 12 0 21 4 21 9 0 10 -39 3 -55 -10 -7 -5 -11 0 -12 14 0 12 1 17 4 10 3
-8 14 -9 36 -2 18 5 52 10 77 11 41 1 42 2 10 6 l-35 4 50 13 c28 8 93 19 145
25 67 8 99 16 108 28 12 16 2 17 -128 20 -131 2 -141 4 -135 21 5 16 -8 19
-122 35 -71 9 -189 26 -263 36 -192 27 -211 28 -200 15 7 -8 2 -16 -14 -25
-26 -14 -180 -8 -266 10 -25 5 -49 9 -53 10 -5 0 -5 5 -1 11 5 8 -6 10 -37 6
-24 -4 -73 -1 -109 6 -64 12 -65 13 -62 43 l3 31 -113 16 c-170 26 -158 30
-158 -58z"/>
<path d="M2609 3748 c-1 -7 -1 -16 -1 -19 1 -4 -42 -6 -94 -4 l-95 2 70 -34
c39 -19 71 -39 71 -45 0 -6 3 -9 6 -5 4 3 13 -1 21 -9 10 -10 17 -46 22 -111
4 -63 10 -98 19 -101 9 -3 12 19 12 87 l0 91 36 0 c19 0 44 5 54 10 15 8 222
39 263 40 4 0 7 6 7 13 0 11 -81 33 -197 53 -50 9 -70 14 -108 28 -49 19 -85
20 -86 4z"/>
<path d="M3028 3622 c-42 -20 -37 -34 20 -48 12 -4 22 -10 22 -15 0 -5 7 -6
15 -3 8 3 47 -2 87 -11 68 -15 154 -15 211 2 15 4 18 -1 16 -29 -5 -63 1 -128
11 -128 6 0 10 11 10 25 0 17 5 25 18 25 10 0 23 5 28 10 10 10 155 31 163 24
2 -2 -7 -8 -20 -13 -20 -7 -21 -10 -8 -16 10 -4 19 -23 23 -48 l6 -42 48 0
c40 1 47 4 47 20 0 11 4 26 8 33 9 13 28 17 26 5 -1 -5 -1 -23 0 -40 1 -31 3
-33 36 -33 34 0 35 1 35 40 0 46 7 48 102 26 31 -8 59 -11 63 -8 7 8 -127 47
-214 62 -36 7 -79 18 -96 26 -37 17 -124 34 -177 34 -25 0 -46 7 -60 20 -12
10 -25 17 -30 14 -4 -3 -8 0 -8 5 0 6 -18 11 -39 11 -22 0 -41 4 -43 9 -3 9
-52 16 -180 27 -43 4 -75 10 -73 15 11 16 -12 17 -47 1z"/>
<path d="M8567 3610 c-3 -14 -9 -46 -12 -73 -4 -27 -11 -45 -16 -41 -5 3 -7
21 -3 41 5 26 4 34 -5 29 -7 -5 -11 -38 -10 -89 0 -45 3 -76 6 -69 8 19 23 14
23 -8 0 -11 4 -20 8 -20 4 0 9 -11 10 -25 1 -14 -2 -24 -6 -24 -23 4 -32 -4
-32 -28 0 -35 9 -48 35 -55 18 -4 20 0 18 54 0 32 3 60 8 63 4 3 28 6 53 7 63
1 76 18 66 88 -5 30 -9 79 -9 108 -1 56 -21 74 -22 20 -1 -63 -8 -110 -20
-124 -8 -10 -7 -17 5 -29 22 -23 21 -25 -18 -25 -28 0 -35 4 -41 27 -4 17 -2
29 4 31 17 6 13 22 -5 22 -13 0 -15 8 -12 38 3 20 8 45 12 55 5 10 4 17 -3 17
-6 0 -12 -8 -12 -17 -1 -10 -5 -2 -9 17 -6 33 -7 33 -13 10z"/>
<path d="M7520 3589 c-36 -4 -116 -8 -177 -9 -62 -1 -113 -5 -113 -9 0 -4 50
-13 111 -18 115 -12 149 -26 149 -65 0 -31 19 -20 22 15 2 23 7 31 18 28 42
-12 64 -6 70 19 7 26 2 51 -9 49 -3 -1 -35 -5 -71 -10z"/>
<path d="M7063 3523 c-55 -11 -63 -15 -57 -25 4 -6 3 -8 -4 -4 -6 3 -13 2 -16
-3 -3 -5 -14 -7 -24 -5 -20 6 -133 -22 -141 -34 -3 -5 -34 -15 -68 -22 -35 -8
-63 -18 -63 -23 0 -5 33 -7 73 -6 69 3 72 2 70 -18 -2 -18 2 -21 25 -20 23 2
28 7 30 35 3 31 4 32 51 32 35 0 53 -5 66 -20 28 -31 52 -24 46 13 -1 4 3 16
8 26 7 12 6 22 -2 30 -9 10 4 11 63 5 41 -3 81 -11 88 -17 14 -11 14 -87 0
-87 -4 0 -8 5 -8 11 0 5 -4 7 -10 4 -5 -3 -10 -22 -10 -41 0 -21 4 -33 10 -29
6 3 10 15 10 26 0 21 15 26 26 8 3 -6 0 -15 -7 -20 -10 -6 -4 -9 19 -9 l33 0
-3 97 -3 97 -97 1 c-54 0 -101 -1 -105 -2z"/>
<path d="M1994 3465 c-4 -8 -12 -15 -20 -15 -16 0 -19 -37 -3 -42 6 -2 13 -33
16 -69 5 -62 4 -66 -16 -72 -20 -5 -22 -11 -19 -74 3 -66 4 -68 31 -71 l27 -3
0 75 c0 61 3 76 15 76 8 0 15 9 15 19 0 26 10 51 21 51 5 0 9 -16 9 -35 0 -30
3 -35 23 -35 20 0 24 5 25 30 1 46 24 61 105 71 93 11 99 11 93 0 -3 -4 6 -6
20 -3 17 3 24 0 22 -9 -2 -9 22 -17 82 -27 47 -8 88 -18 91 -23 3 -6 14 -7 24
-3 13 5 16 4 11 -4 -4 -7 -1 -12 9 -12 9 0 13 -4 10 -10 -3 -5 -1 -10 4 -10 6
0 11 -6 11 -14 0 -11 13 -15 50 -14 46 0 55 5 51 30 -1 8 25 15 69 20 14 2 28
7 31 11 11 15 174 15 195 0 13 -10 14 -13 3 -13 -37 -1 31 -24 81 -27 142 -9
221 -23 227 -39 3 -8 9 -14 15 -14 5 0 6 5 2 11 -4 8 -1 8 12 1 11 -6 24 -10
29 -9 6 0 12 -7 13 -17 2 -10 -2 -17 -10 -15 -29 4 -33 -3 -36 -61 -3 -55 -1
-60 18 -60 15 0 20 7 21 28 1 43 9 76 21 87 8 7 9 4 5 -12 -3 -15 -1 -23 8
-23 7 0 16 15 19 34 5 26 14 37 44 50 36 16 143 21 139 6 -1 -3 7 -25 18 -48
l20 -42 80 -2 c44 0 103 -2 130 -2 28 -1 55 -5 61 -9 6 -3 28 2 49 12 36 17
36 18 14 24 -13 4 -42 7 -64 7 -73 0 -88 9 -82 45 l5 32 -105 13 c-76 9 -107
9 -112 1 -10 -15 -117 3 -137 24 -8 8 -32 16 -52 17 -83 4 -113 6 -234 21 -70
9 -132 18 -138 22 -5 3 -23 -1 -41 -10 -30 -16 -31 -16 -24 4 7 22 20 19 -220
46 -77 9 -150 17 -162 19 -13 2 -23 0 -23 -3 0 -3 -29 -6 -63 -6 -56 0 -63 2
-59 17 2 10 0 18 -4 18 -5 0 -90 9 -189 21 -99 11 -190 18 -202 16 -12 -2 -20
0 -17 4 3 5 -9 9 -26 9 -18 0 -33 -6 -36 -15z"/>
<path d="M7946 3430 c3 -19 8 -43 10 -52 3 -10 2 -18 -3 -19 -4 0 -20 -3 -35
-5 -16 -3 -28 0 -28 5 0 7 -8 7 -24 1 -13 -5 -27 -6 -30 -3 -3 4 -7 -11 -8
-33 l-1 -39 -7 45 -7 45 -1 -40 c-2 -54 8 -91 19 -73 7 10 9 9 9 -4 0 -12 10
-18 37 -20 20 -2 38 -8 40 -14 2 -7 -25 -11 -79 -12 -46 0 -114 -4 -153 -8
-80 -8 -78 -8 -247 -19 -71 -4 -128 -11 -128 -15 0 -9 76 -20 132 -20 28 0 40
-5 44 -17 3 -10 10 -27 14 -38 5 -11 11 -27 13 -35 3 -8 6 6 6 33 1 26 4 47 7
47 3 0 19 -9 35 -21 30 -21 49 -19 49 6 0 7 9 16 19 20 12 4 18 12 14 21 -3
10 2 14 18 14 15 0 20 -3 12 -8 -7 -4 11 -8 40 -7 30 0 55 5 60 13 10 15 37
16 37 1 0 -8 5 -7 15 1 19 15 106 14 116 -1 4 -7 12 -5 22 6 18 18 76 18 89 0
5 -6 8 -4 9 5 1 8 5 2 9 -15 l8 -30 1 28 c1 22 6 27 29 28 25 1 24 2 -8 9 -19
5 -38 6 -42 4 -5 -3 -17 -2 -28 1 -17 5 -20 15 -20 63 0 69 7 82 43 78 17 -2
26 1 24 8 -2 6 -25 11 -54 10 l-51 -1 -15 46 c-14 40 -16 42 -11 11z"/>
<path d="M6169 3425 c-1 -16 -1 -72 0 -123 2 -107 5 -104 -97 -107 -37 -1 -97
-2 -134 -3 l-68 -2 0 -80 0 -80 -105 0 -106 0 3 -45 c3 -50 21 -65 26 -22 l3
28 110 -3 c60 -1 109 -6 109 -11 0 -4 4 -5 10 -2 17 11 50 14 50 6 0 -12 33
-8 42 4 4 6 8 2 8 -7 0 -16 -10 -18 -70 -18 -57 0 -70 -3 -70 -16 0 -13 24
-15 186 -13 165 2 184 4 161 16 -27 14 -28 47 -1 36 8 -3 14 0 14 6 0 6 7 11
16 11 8 0 12 -4 9 -10 -3 -5 -2 -10 4 -10 5 0 14 6 18 13 12 20 47 31 40 13
-4 -10 -1 -13 8 -9 8 3 12 9 9 14 -3 5 4 9 15 9 12 0 21 -6 21 -12 0 -10 2
-10 8 -1 6 9 17 10 38 4 16 -4 35 -6 42 -4 6 3 12 -1 12 -9 0 -10 3 -9 10 2 5
8 10 10 10 4 0 -6 15 -10 34 -9 19 0 32 -3 30 -7 -3 -4 3 -8 13 -8 31 0 43
-21 43 -72 0 -40 3 -48 19 -48 16 0 18 7 17 60 -1 33 3 60 8 60 5 0 6 3 3 7
-4 3 1 15 10 25 16 18 12 19 -178 18 -107 -1 -211 -1 -231 -1 l-38 1 0 85 c0
80 -1 85 -21 85 -20 0 -21 4 -17 69 2 38 1 68 -2 66 -3 -2 -3 16 -2 40 2 24
-1 52 -7 62 -9 16 -11 14 -12 -12z"/>
<path d="M7573 3389 c-13 -13 -93 -19 -93 -7 0 5 -9 4 -19 -2 -11 -5 -42 -10
-70 -10 -96 0 -109 -29 -13 -31 112 -2 110 -17 -3 -18 -104 -1 -281 -20 -371
-41 -23 -5 -71 -12 -108 -16 -64 -7 -66 -6 -66 16 0 16 -4 20 -16 16 -9 -3
-40 -9 -70 -12 -30 -4 -52 -9 -49 -13 12 -11 96 -28 101 -20 12 19 35 7 40
-20 4 -17 14 -32 23 -34 9 -2 -26 -7 -76 -11 -91 -8 -115 -18 -71 -30 22 -5
22 -6 3 -20 -28 -20 -17 -26 48 -27 39 -1 57 -6 57 -14 0 -16 -13 -21 -70 -24
-69 -4 -61 -11 13 -11 64 0 67 1 67 24 0 23 5 25 68 32 37 3 77 10 89 15 14 5
25 4 29 -2 4 -7 23 -8 50 -4 l45 6 -6 -30 c-4 -23 -2 -31 10 -31 10 0 15 10
15 30 0 24 4 30 21 30 11 0 17 -5 14 -10 -4 -6 -12 -7 -18 -3 -7 4 -7 0 1 -10
8 -9 11 -21 7 -27 -4 -6 15 -10 54 -10 l61 0 0 111 0 111 83 -2 c45 -1 97 2
116 6 26 5 32 4 26 -6 -5 -9 -4 -11 3 -6 7 4 12 14 12 22 0 10 12 13 47 11 42
-2 47 0 53 23 8 31 -19 67 -37 49z m-364 -151 c16 -10 21 -23 21 -55 0 -24 -5
-43 -12 -46 -8 -3 -6 -6 5 -6 19 -1 20 -6 7 -36 -8 -19 -9 -19 -9 3 -1 12 -5
22 -10 22 -5 0 -7 -9 -4 -20 3 -11 0 -20 -6 -20 -6 0 -10 3 -10 8 1 4 1 17 0
30 -1 20 -6 22 -67 22 l-65 0 3 61 3 61 62 -5 c34 -4 71 -12 82 -19z"/>
<path d="M5417 3203 c-10 -3 -14 -9 -10 -16 4 -7 -1 -6 -10 2 -13 10 -17 10
-17 1 0 -8 -9 -10 -26 -6 -17 5 -23 3 -19 -4 3 -5 13 -10 21 -10 12 0 11 -6
-5 -29 -12 -16 -21 -37 -21 -46 0 -10 -6 -15 -17 -13 -10 2 -17 11 -17 21 1 9
-2 14 -8 11 -5 -3 -25 6 -44 21 -55 42 -50 24 11 -39 59 -60 64 -69 38 -59
-11 4 -14 3 -9 -5 11 -18 0 -14 -15 5 -10 11 -10 14 -1 9 6 -4 12 -3 12 2 0 5
-17 21 -38 35 -28 18 -39 21 -39 11 0 -8 9 -14 19 -14 11 0 17 -4 13 -10 -3
-5 -13 -6 -22 -3 -13 5 -15 2 -9 -18 15 -54 15 -59 -4 -59 -10 0 -21 -4 -24
-8 -5 -9 -77 -7 -146 4 l-45 7 19 -22 19 -21 -111 0 c-68 0 -113 4 -117 11 -4
6 -5 12 -4 13 3 3 125 15 152 16 10 0 4 187 -6 196 -3 4 -83 3 -177 -1 l-170
-7 0 -99 0 -99 75 0 c60 0 75 -3 75 -15 0 -12 -18 -15 -100 -15 -55 0 -100 -4
-100 -9 0 -24 480 -25 488 -1 2 6 10 6 22 0 11 -6 54 -17 97 -25 55 -10 83
-21 96 -36 17 -21 17 -22 0 -36 -17 -13 -17 -14 -1 -9 21 6 27 -3 30 -41 1
-15 5 -32 9 -38 12 -17 23 -169 12 -162 -9 5 -10 -14 -4 -44 2 -11 41 -18 46
-9 3 5 2 10 -3 12 -4 1 0 19 10 38 l17 35 2 -45 c1 -25 3 -37 6 -27 2 9 8 15
13 12 5 -3 12 0 16 6 4 7 3 9 -3 6 -6 -4 -14 0 -17 9 -9 24 5 174 16 168 5 -3
4 3 -3 14 -19 30 17 92 61 107 45 15 50 33 8 27 l-33 -4 29 26 c32 29 47 32
79 15 15 -9 22 -9 25 -1 2 8 11 8 28 1 40 -15 63 -9 29 7 l-30 15 32 -4 c18
-2 29 1 26 5 -3 5 -19 8 -37 7 -57 -4 -68 0 -64 21 2 12 6 19 10 18 4 -2 15 7
23 20 9 12 26 22 38 23 20 1 20 2 -3 8 -14 4 -27 15 -28 25 -3 14 0 17 12 13
9 -4 16 -2 16 3 0 6 -15 10 -32 11 -18 0 -28 3 -21 5 8 4 5 13 -9 30 -19 21
-24 22 -37 10 -18 -15 -51 -17 -51 -3 0 5 7 7 15 3 8 -3 15 -1 15 4 0 6 -4 10
-10 10 -5 0 -10 9 -10 20 0 20 -14 23 -53 13z"/>
<path d="M8003 3088 c1 -34 -2 -57 -8 -55 -5 1 -9 14 -7 30 2 15 -1 27 -6 27
-5 0 -14 10 -20 23 -9 19 -11 15 -11 -28 -1 -39 -6 -55 -23 -70 -22 -19 -39
-20 -320 -20 -327 0 -390 -11 -158 -28 l35 -2 3 -57 c3 -58 3 -58 -22 -49 -18
8 -26 6 -30 -5 -3 -8 0 -14 7 -15 7 0 27 -2 45 -3 l32 -2 0 63 c0 66 8 75 43
49 19 -15 22 -60 7 -100 -9 -24 -7 -26 15 -26 16 0 25 6 25 16 0 11 -6 14 -17
10 -17 -6 -17 -5 0 8 10 8 17 27 17 46 0 23 5 33 20 37 11 3 20 9 20 15 0 5
10 4 21 -3 15 -8 19 -8 15 0 -10 15 5 13 28 -4 20 -15 41 -11 30 7 -4 6 1 8
12 6 11 -2 18 -10 17 -16 -2 -7 2 -12 7 -12 6 0 10 5 10 10 0 7 6 7 19 0 11
-5 30 -10 43 -10 18 0 20 2 8 10 -13 8 -12 10 3 10 9 0 17 -4 17 -9 0 -15 33
-22 41 -9 7 10 11 10 21 0 6 -6 22 -12 35 -12 19 0 23 -5 23 -30 0 -22 5 -30
18 -30 14 0 15 2 2 10 -20 13 -10 18 25 13 29 -4 30 -6 26 -55 -2 -31 1 -48 7
-44 5 3 12 -11 16 -32 10 -60 5 -71 -9 -22 l-13 45 0 -53 c1 -37 5 -52 13 -48
7 2 18 -1 25 -7 10 -10 11 0 7 43 -4 36 -3 49 3 40 5 -8 10 -31 11 -50 0 -19
3 -29 6 -22 2 6 16 12 29 12 29 0 32 16 4 23 -13 3 -18 1 -13 -5 3 -7 1 -8 -5
-4 -17 10 -15 39 2 33 8 -3 17 2 21 11 3 9 3 13 -1 9 -15 -14 -34 17 -34 55 0
32 -3 39 -15 34 -8 -3 -15 -1 -15 4 0 6 8 10 18 10 15 0 15 2 2 11 -13 9 -13
10 0 6 8 -2 16 -13 18 -25 2 -12 7 -22 12 -22 5 0 17 -3 27 -6 13 -5 12 -2 -4
10 -37 28 -27 36 42 36 59 0 65 2 65 21 0 19 5 20 55 16 64 -5 61 -3 70 -40 6
-23 4 -27 -13 -27 -29 0 -36 -17 -13 -29 28 -15 41 -14 41 5 0 11 5 14 16 10
9 -3 18 -6 20 -6 2 0 4 -29 4 -65 0 -63 1 -65 25 -65 l25 0 0 133 c0 108 -3
137 -17 157 -9 13 -20 40 -24 59 -6 27 -7 18 -5 -31 2 -36 0 -72 -4 -78 -6
-10 -57 -11 -211 -5 -112 4 -214 7 -226 7 -22 0 -31 24 -25 65 2 14 8 20 18
16 11 -4 14 6 14 50 0 53 -19 93 -21 45 -1 -20 -3 -19 -10 7 -6 24 -7 18 -6
-27z"/>
<path d="M10360 3069 c-52 -4 -355 -7 -672 -8 -324 -1 -578 -5 -578 -10 0 -20
30 -31 106 -38 l79 -8 3 -157 c2 -127 5 -158 16 -158 8 0 21 -3 30 -6 14 -5
16 12 16 156 l0 163 31 -7 c17 -3 48 -6 69 -6 26 0 45 -8 64 -25 15 -14 31
-25 37 -25 5 0 9 -22 9 -50 0 -39 -4 -50 -16 -50 -8 0 -13 -4 -10 -8 6 -10 36
-9 54 2 6 4 16 4 22 1 6 -3 7 1 4 9 -5 13 1 16 30 16 20 0 36 -4 36 -10 0 -5
-4 -10 -10 -10 -11 0 -14 -69 -4 -94 8 -20 24 -21 24 -1 0 8 5 15 12 15 6 0 3
6 -7 14 -19 14 -14 53 5 41 6 -4 24 -1 40 7 l30 13 -32 12 c-31 11 -28 12 36
10 57 -1 70 -5 74 -19 6 -25 22 -23 22 3 0 12 -8 23 -19 26 -11 3 -21 12 -24
21 -3 10 -8 25 -12 35 -6 14 -2 17 25 17 28 0 31 2 20 15 -7 9 -10 19 -6 22 4
4 11 1 17 -7 7 -12 11 -13 18 -2 6 11 10 10 15 -3 5 -14 15 -17 49 -12 23 2
36 3 30 0 -26 -10 -12 -19 30 -19 95 -2 347 -26 415 -41 40 -8 88 -13 107 -10
19 3 35 2 35 -4 0 -5 -4 -9 -10 -9 -5 0 -10 -11 -10 -25 0 -18 4 -23 15 -19
19 8 19 0 -1 -20 -13 -13 -13 -16 -1 -16 8 0 19 10 26 23 11 22 11 22 7 0 -3
-19 -1 -20 26 -11 22 8 26 13 16 19 -10 7 -10 9 2 9 13 0 13 1 0 10 -12 8 -9
10 13 10 20 0 27 5 27 20 0 12 -7 20 -17 21 -13 0 -10 3 7 10 14 6 46 7 72 4
l48 -7 0 91 0 91 -172 -2 c-95 -2 -216 -6 -268 -9z"/>
<path d="M6840 3050 c-85 -3 -150 -8 -144 -12 8 -5 10 -31 7 -75 -8 -125 13
-112 -191 -115 l-177 -3 1 -25 c1 -14 2 -46 3 -72 1 -41 4 -48 21 -48 16 0 20
7 20 30 0 22 5 30 18 31 9 0 45 2 78 5 57 5 62 3 69 -18 l8 -23 4 23 c3 16 9
22 20 18 8 -3 30 -6 49 -6 32 0 34 -2 34 -32 0 -57 14 -19 16 43 2 74 13 88
48 65 15 -9 26 -23 26 -31 0 -7 9 -16 19 -20 23 -7 17 -47 -7 -43 -9 2 -18 -4
-20 -13 -2 -11 6 -18 24 -22 31 -6 54 0 54 15 0 5 -4 7 -9 4 -10 -6 -22 30
-13 38 3 3 17 6 31 6 20 0 23 -2 11 -10 -25 -16 1 -29 93 -46 l88 -16 -7 -32
c-3 -17 -8 -33 -10 -35 -2 -2 -58 10 -126 27 -187 46 -195 48 -180 29 8 -9 10
-26 7 -40 -5 -18 -2 -28 11 -35 9 -5 14 -15 10 -21 -4 -6 -12 -9 -17 -6 -14 9
-11 -49 4 -64 10 -11 9 -13 -6 -8 -10 4 -16 3 -13 -1 3 -5 24 -8 48 -7 24 1
49 -5 56 -12 7 -7 24 -13 38 -13 19 0 24 5 24 25 0 18 5 25 20 25 11 0 20 -4
20 -10 0 -6 3 -9 8 -8 4 0 14 -2 22 -5 8 -4 33 -10 55 -15 37 -7 40 -10 41
-42 0 -30 4 -35 25 -35 16 0 25 -7 27 -20 3 -23 55 -50 77 -41 9 3 15 0 15 -9
0 -18 46 -21 52 -4 3 9 10 9 27 0 12 -7 43 -14 67 -15 25 -2 48 -7 52 -11 4
-5 1 -5 -5 -1 -7 4 -13 2 -13 -3 0 -7 -26 -11 -64 -11 -51 0 -81 7 -146 35
-45 19 -91 42 -103 50 -12 8 -31 15 -42 15 -11 0 -49 14 -85 31 -83 39 -148
60 -156 48 -3 -5 3 -9 13 -9 15 0 16 -2 3 -10 -10 -7 -11 -10 -2 -10 20 0 51
-61 48 -93 -3 -20 0 -27 10 -23 8 3 11 0 7 -10 -3 -8 1 -14 8 -14 12 0 12 -2
0 -9 -10 -7 -8 -12 10 -25 13 -9 29 -16 35 -16 7 0 14 -4 16 -9 6 -17 168 -91
200 -92 28 0 30 -2 13 -9 -19 -8 -19 -9 3 -9 13 -1 21 -5 18 -10 -3 -4 36 -29
87 -55 76 -38 101 -46 147 -46 72 0 100 8 100 29 0 9 5 22 10 27 8 8 -9 21
-55 45 -36 18 -65 36 -65 40 0 4 7 12 15 19 12 10 18 10 32 -1 14 -12 16 -12
8 0 -6 11 -4 13 8 8 11 -4 14 -2 11 7 -4 10 -15 12 -37 6 -20 -4 -44 -2 -62 6
-16 7 -24 13 -17 14 7 0 22 -5 33 -10 11 -6 19 -7 19 -1 0 5 10 7 23 4 20 -4
20 -3 4 7 -10 6 -25 9 -33 6 -9 -3 -12 -1 -9 4 4 6 -9 17 -27 25 -31 13 -31
14 -7 15 14 0 29 -4 35 -9 12 -12 105 -31 98 -20 -3 5 -1 9 5 9 5 0 12 -6 14
-12 4 -10 6 -10 6 -1 1 7 8 10 16 7 14 -6 13 -8 -2 -19 -16 -12 -16 -14 10
-26 24 -11 30 -11 38 2 8 12 10 12 18 0 6 -9 28 -15 56 -17 26 -1 52 -7 58
-13 6 -6 19 -11 30 -11 10 0 15 -4 12 -10 -3 -5 1 -10 9 -10 9 0 16 -6 16 -14
0 -23 58 -46 117 -46 47 0 53 2 53 21 0 16 -5 20 -20 16 -11 -3 -20 0 -20 5 0
7 15 8 40 4 43 -7 55 7 18 19 -21 6 -21 8 -4 12 10 3 23 0 29 -6 6 -6 28 -11
49 -11 29 0 38 -4 39 -17 6 -88 6 -93 -6 -83 -6 5 -14 8 -16 5 -3 -2 -26 2
-53 10 -46 14 -47 14 -44 -6 4 -27 77 -53 131 -46 26 4 62 -3 113 -20 81 -27
95 -24 97 21 2 22 6 24 27 19 14 -3 33 -10 42 -14 9 -5 28 -9 42 -9 17 0 26
-5 26 -16 0 -10 6 -14 15 -10 11 4 15 -1 15 -19 0 -22 -4 -25 -39 -25 -21 0
-54 6 -72 13 -24 10 -60 12 -124 8 -82 -5 -90 -8 -91 -27 -1 -17 4 -19 28 -16
21 3 27 1 23 -9 -4 -10 5 -15 30 -16 44 -2 44 4 0 23 -50 21 -43 34 19 34 49
0 54 -2 60 -25 4 -16 16 -27 34 -31 15 -4 32 -11 38 -16 7 -5 35 -11 63 -13
28 -3 74 -7 101 -10 l50 -4 0 43 0 44 33 -7 c18 -5 41 -12 52 -18 34 -17 123
-25 127 -11 4 12 61 -4 296 -83 l83 -28 -6 37 -5 37 15 -40 14 -40 -5 50 c-7
68 -15 95 -25 95 -5 0 -9 6 -9 14 0 10 16 17 48 22 41 7 44 9 22 15 -14 4 -18
8 -10 9 8 2 -3 6 -25 10 l-40 7 45 1 c40 1 106 -16 71 -17 -8 -1 -12 -3 -9 -6
3 -3 17 -1 31 4 32 12 44 -1 43 -49 -1 -30 -4 -35 -26 -35 -20 0 -26 -6 -28
-27 -3 -25 0 -27 42 -33 71 -11 76 -6 76 74 0 74 1 73 -70 87 -8 1 -51 15 -95
30 -44 15 -86 29 -93 31 -23 5 -2 23 29 23 26 0 29 3 29 35 l0 34 -122 -5
c-68 -3 -138 -7 -157 -9 -20 -3 -87 10 -165 31 -195 54 -184 53 -189 8 l-4
-39 -1 42 c-2 41 -3 43 -44 53 -133 32 -314 85 -323 94 -5 6 -22 10 -36 8 -14
-2 -45 2 -70 8 -24 7 -78 20 -119 30 -41 10 -96 24 -122 31 l-48 13 0 49 c0
39 -3 48 -14 44 -8 -3 -16 -2 -18 3 -2 4 -17 10 -35 13 -17 3 -38 8 -45 12 -7
3 -5 0 4 -8 10 -8 15 -17 11 -20 -3 -4 1 -7 10 -7 10 0 19 -11 23 -27 4 -16
12 -32 18 -36 6 -5 -5 -5 -24 -1 -41 8 -49 17 -43 48 3 13 0 27 -6 30 -6 4
-11 2 -11 -4 0 -7 -7 -4 -16 5 -9 9 -13 19 -10 23 4 3 11 0 16 -8 8 -12 10
-10 10 9 0 15 -5 21 -13 18 -11 -4 -13 6 -9 46 3 29 10 55 16 59 7 5 6 8 -3 8
-12 0 -12 3 -3 12 10 10 15 10 22 -2 7 -10 10 -11 10 -2 0 15 32 16 47 1 10
-10 50 -15 196 -23 26 -1 27 -3 27 -54 l0 -53 43 3 42 3 3 53 c3 43 6 52 21
52 21 0 33 40 20 62 -12 18 -11 58 1 58 6 0 10 18 10 40 0 22 -5 40 -11 40 -5
0 -8 -4 -5 -9 4 -5 0 -12 -6 -14 -10 -4 -10 -8 1 -15 11 -8 11 -10 0 -15 -12
-5 -12 -6 0 -6 21 -1 -7 -31 -30 -31 -26 0 -24 -19 4 -30 16 -6 17 -9 5 -9
-10 -1 -18 -11 -21 -28 -3 -25 -4 -24 -6 7 -1 19 -8 43 -15 53 -17 23 -47 22
-53 -2 -4 -17 -17 -19 -116 -22 -62 -2 -147 -3 -191 -2 -76 2 -78 1 -61 -17
14 -15 17 -33 13 -90 -3 -58 -1 -70 12 -71 13 0 13 -1 0 -6 -14 -6 -40 -28
-40 -35 0 -2 12 -5 27 -6 15 -1 31 -6 36 -11 6 -6 -3 -8 -24 -5 -27 5 -31 3
-22 -7 6 -6 26 -12 42 -13 17 -1 33 -7 36 -14 3 -10 -4 -11 -30 -6 l-35 6 -1
-103 c0 -57 -3 -98 -6 -91 -2 6 -13 12 -24 12 -17 0 -19 8 -19 100 0 55 -3
100 -7 101 -37 4 -192 48 -205 58 -4 4 16 5 45 4 29 -1 58 -2 65 -3 7 0 11 -4
7 -9 -8 -13 10 -22 46 -23 40 -1 57 15 38 38 -8 11 -9 15 -2 11 9 -6 13 17 15
90 l3 98 -110 18 c-60 10 -146 22 -190 26 -44 5 -146 18 -227 30 -82 12 -165
22 -185 22 -31 2 -33 3 -10 6 21 3 27 10 27 30 l0 25 90 -4 c75 -3 92 -7 104
-24 13 -16 13 -19 0 -22 -22 -5 -17 -21 9 -27 47 -10 180 -25 215 -24 23 1 29
3 15 6 -13 2 -23 11 -23 19 0 8 -4 14 -10 14 -5 0 -10 -4 -10 -10 0 -5 -9 -10
-20 -10 -13 0 -20 7 -20 19 0 16 6 17 50 13 31 -3 50 -1 50 6 0 6 -15 10 -32
9 -18 0 -64 3 -103 8 -38 5 -80 8 -92 8 -13 -1 -23 3 -23 8 0 5 7 9 15 9 11 0
15 11 15 38 0 25 7 43 20 55 13 11 20 13 20 4 0 -8 3 -7 9 3 12 17 75 17 96 0
8 -7 17 -34 21 -60 5 -35 11 -50 24 -53 16 -4 19 5 25 65 5 46 10 66 16 57 9
-14 9 -11 9 29 0 8 -232 9 -460 2z m625 -324 c17 -1 21 -10 25 -64 3 -34 2
-62 -2 -62 -3 0 -9 -8 -11 -17 -3 -13 -5 -12 -6 5 -1 19 -6 23 -28 20 -20 -2
-28 -8 -27 -20 1 -10 -4 -18 -12 -18 -8 0 -11 6 -7 17 4 11 3 14 -5 9 -8 -5
-12 1 -12 15 0 12 -3 19 -7 16 -3 -4 -12 1 -20 11 -8 9 -12 11 -8 5 4 -9 1
-11 -9 -7 -9 3 -13 11 -9 17 3 6 1 7 -5 3 -7 -4 -12 -16 -12 -27 0 -10 -4 -19
-10 -19 -11 0 -27 30 -24 48 1 6 2 28 3 48 l1 36 83 -7 c45 -4 91 -8 102 -9z
m25 -331 c0 -78 -2 -85 -20 -85 -11 0 -20 6 -20 14 0 7 -13 16 -28 19 -53 11
-142 55 -142 71 0 9 5 16 11 16 8 0 7 5 -1 15 -19 23 -7 27 28 9 34 -16 129
-16 124 1 -3 8 20 22 41 24 4 1 7 -37 7 -84z"/>
<path d="M807 3042 l-807 -2 0 -60 0 -60 36 15 c20 8 39 13 43 10 4 -2 32 2
62 10 30 8 82 15 117 15 34 0 62 4 62 9 0 4 28 11 62 14 35 3 71 8 81 12 9 4
17 3 17 -3 0 -6 -8 -13 -18 -16 -9 -2 -1 -2 19 0 19 3 73 0 120 -6 63 -9 90
-17 109 -34 14 -14 43 -26 67 -29 63 -8 74 -25 79 -115 3 -70 5 -78 25 -82 23
-6 26 -19 28 -157 1 -31 5 -43 16 -43 13 0 15 28 15 193 l0 192 34 27 c26 21
51 29 105 36 39 5 73 6 76 4 3 -3 5 -30 5 -61 0 -31 3 -107 7 -168 l6 -113 29
0 28 0 0 104 c0 110 13 173 30 146 8 -12 10 -11 11 5 0 11 3 14 6 8 7 -19 36
-16 55 6 14 17 26 18 108 14 70 -4 95 -2 101 8 6 10 48 14 156 17 162 4 239
-7 229 -34 -5 -12 1 -15 22 -14 40 3 50 -1 23 -9 -23 -6 -23 -8 -22 -117 l2
-111 -60 -7 c-55 -6 -61 -9 -61 -31 0 -17 5 -22 18 -20 9 2 38 7 65 10 37 5
47 10 47 25 0 12 10 21 31 25 l30 7 -3 114 -3 114 53 0 c30 0 52 4 52 11 0 5
5 7 10 4 6 -3 10 -1 10 6 0 6 12 -1 26 -16 23 -25 26 -26 20 -7 -5 13 -3 22 3
22 6 0 12 -12 12 -27 l1 -28 7 25 c5 22 11 25 56 26 28 1 44 -1 38 -3 -7 -3
-13 -9 -13 -14 0 -6 9 -5 21 1 18 10 19 10 10 -8 -6 -11 -7 -22 -4 -26 3 -3
-4 -6 -16 -6 -20 0 -21 -3 -16 -52 10 -88 14 -98 35 -98 22 0 23 11 11 97 -8
54 1 93 20 93 6 0 9 -7 5 -15 -3 -10 1 -15 13 -15 10 0 21 7 25 15 8 23 26 18
26 -7 1 -19 3 -18 15 10 8 17 16 32 19 32 9 0 2 -45 -9 -53 -5 -5 1 -5 15 -1
33 9 37 13 20 24 -13 8 -13 11 -1 22 9 8 11 8 7 1 -8 -15 26 -26 57 -19 12 3
16 3 9 0 -6 -3 -10 -9 -7 -14 3 -4 -4 -6 -15 -3 -11 3 -20 0 -20 -6 0 -6 9
-11 20 -11 11 0 20 -6 20 -14 0 -18 33 -14 38 5 3 11 1 11 -7 -1 -15 -21 -14
-9 3 30 13 31 13 31 19 9 9 -33 8 -132 -1 -144 -4 -5 -16 -12 -27 -13 -30 -6
-32 -12 -2 -12 14 0 32 -2 40 -5 11 -5 14 7 16 57 2 83 11 129 25 133 25 9
136 11 136 3 0 -4 -5 -8 -11 -8 -6 0 -8 -9 -4 -20 4 -11 2 -20 -4 -20 -6 0
-11 -5 -11 -11 0 -7 7 -8 18 -4 9 4 25 7 35 7 20 -1 23 14 5 20 -7 3 6 8 28
11 23 4 44 14 48 22 5 13 2 14 -15 4 -11 -6 -23 -8 -26 -5 -3 3 2 9 12 13 18
6 18 7 -1 14 -17 7 -17 8 -1 8 28 1 19 21 -10 21 -14 0 -24 2 -21 5 4 5 147 9
201 7 18 -2 27 -8 28 -19 0 -10 5 -4 10 14 5 17 18 34 28 38 26 8 71 -11 71
-30 0 -9 4 -14 9 -11 5 3 7 15 4 26 -4 15 0 20 16 20 14 0 22 -8 27 -27 9 -44
12 -50 13 -25 1 20 5 23 34 20 31 -3 32 -5 35 -50 3 -45 4 -47 27 -38 12 5 26
6 29 3 3 -4 6 -1 6 5 0 7 -7 12 -16 12 -14 0 -14 3 -4 15 10 12 10 15 -4 15
-9 0 -16 5 -16 11 0 6 9 9 19 6 11 -3 22 0 24 7 2 6 2 1 0 -11 -3 -21 1 -23
37 -23 39 0 40 1 40 34 0 21 6 36 15 40 8 3 15 0 15 -7 0 -9 3 -9 9 1 8 14 32
13 42 -2 4 -4 15 -3 26 2 33 18 66 -12 61 -54 -3 -26 0 -35 14 -40 26 -8 158
7 158 18 0 6 9 8 20 5 17 -4 20 0 20 34 0 33 3 39 21 39 11 0 29 5 40 11 15 7
24 7 34 -1 10 -8 15 -8 20 0 4 6 19 17 33 23 23 10 -2 13 -148 17 -195 6 -220
4 -220 -16 0 -11 -16 -14 -65 -14 -51 0 -65 3 -65 15 0 9 -9 15 -22 15 -13 0
-365 -1 -783 -1 -418 0 -794 -1 -835 -2 -41 -1 -109 0 -150 3 -41 3 -438 4
-883 2z"/>
<path d="M4010 2915 l0 -35 75 0 75 0 0 -30 0 -30 -79 0 c-50 0 -83 -4 -87
-12 -4 -7 -3 -8 4 -4 8 5 12 0 12 -13 0 -18 6 -21 50 -21 49 0 50 -1 50 -30 0
-20 5 -30 15 -30 10 0 15 10 15 28 0 24 3 27 33 26 78 -4 77 -3 77 -29 0 -35
28 -33 32 3 2 21 9 28 30 30 22 3 27 -1 31 -25 2 -15 4 -2 3 30 l0 59 -86 -4
-86 -3 4 28 c3 19 9 26 18 23 7 -3 16 -1 19 4 4 7 13 6 25 0 13 -7 21 -7 25 0
11 18 25 10 25 -15 0 -21 5 -25 28 -25 23 0 28 5 30 26 1 15 -3 32 -8 39 -11
13 46 25 122 25 24 0 37 4 33 10 -4 6 -97 10 -246 10 l-239 0 0 -35z"/>
<path d="M3893 2913 c-42 -4 -43 -5 -43 -39 0 -19 -2 -34 -4 -34 -8 0 -161
-20 -193 -26 -20 -3 -33 -11 -33 -19 0 -8 -4 -15 -10 -15 -5 0 -10 7 -10 15 0
18 -6 18 -85 5 -33 -6 -94 -11 -135 -11 -47 0 -68 -3 -55 -8 16 -7 13 -9 -20
-15 -72 -11 -290 -36 -315 -36 -14 1 -70 -6 -125 -15 -159 -25 -377 -53 -410
-53 -16 0 -122 -14 -235 -31 -463 -70 -556 -81 -677 -81 -101 0 -123 -3 -123
-15 0 -16 2 -16 -255 -50 -104 -14 -314 -44 -465 -66 -151 -22 -358 -51 -460
-64 -102 -14 -197 -28 -213 -31 l-27 -6 0 -165 0 -165 31 6 c17 3 38 6 46 6 8
0 12 4 9 8 -3 5 8 6 25 4 16 -2 29 0 29 4 0 5 44 9 97 10 l96 1 -26 -21 c-60
-48 -13 -57 104 -21 86 27 87 27 46 38 -20 6 -37 14 -37 19 0 4 -4 8 -10 8 -5
0 -10 -7 -10 -15 0 -16 -14 -18 -45 -6 -19 8 -18 10 13 39 36 33 39 42 17 42
-34 0 -11 22 52 50 37 17 74 37 83 45 13 12 27 13 66 6 40 -8 54 -7 79 8 51
29 119 51 143 46 17 -3 25 2 32 18 8 20 9 19 8 -8 -4 -71 1 -85 26 -85 13 0
36 3 52 6 l29 5 -2 92 -2 92 32 26 c25 21 49 29 100 34 l67 7 0 -66 c0 -37 -4
-65 -9 -62 -5 3 -11 -10 -13 -28 -2 -21 0 -32 6 -29 5 4 7 -1 3 -10 -3 -10 -2
-17 4 -17 6 0 3 -7 -5 -16 -10 -10 -14 -24 -10 -40 5 -19 1 -26 -17 -33 -23
-10 -23 -10 4 -8 25 1 28 5 25 29 -3 16 -1 28 4 28 5 0 6 5 3 10 -3 6 -3 10 2
11 72 7 106 22 122 53 12 21 12 21 7 -1 -2 -13 0 -23 5 -23 5 0 9 5 9 11 0 8
4 8 13 1 6 -5 20 -6 31 -3 10 4 37 5 60 2 36 -5 41 -10 44 -33 4 -31 17 -34
87 -19 22 5 65 14 95 21 76 16 85 18 85 21 0 1 9 3 20 4 11 2 35 6 53 10 32 8
38 2 26 -28 -3 -8 -13 -13 -22 -10 -10 2 -28 0 -42 -6 -24 -10 -25 -10 -4 -16
15 -5 20 -13 17 -26 -5 -19 17 -49 36 -49 16 0 13 -15 -6 -32 -32 -28 -119
-41 -225 -34 -82 5 -115 2 -194 -16 -54 -12 -98 -28 -101 -35 -8 -21 0 -24 38
-12 19 5 43 12 54 14 11 3 32 7 48 11 15 3 27 3 27 -1 0 -18 -36 -35 -135 -64
-61 -18 -148 -46 -195 -62 -46 -16 -90 -29 -98 -29 -15 0 -42 -24 -42 -38 0
-16 28 -34 41 -26 9 5 7 11 -6 21 -11 7 -14 13 -8 13 5 0 18 -9 28 -20 10 -11
14 -20 9 -20 -18 0 -36 -41 -24 -55 7 -8 7 -15 1 -19 -5 -4 -13 -1 -16 5 -4 5
-13 8 -20 6 -9 -4 -13 12 -14 56 -1 34 -3 62 -5 64 -1 2 -47 -11 -102 -27 -92
-29 -706 -204 -801 -230 l-43 -11 0 -250 c0 -250 0 -250 21 -244 12 4 46 7 76
6 l55 0 -3 80 -4 81 59 24 c33 13 63 24 68 24 4 0 8 -49 8 -110 0 -60 2 -110
5 -110 2 0 29 9 60 21 40 15 67 19 95 14 l39 -7 -5 169 -5 169 40 14 c39 13
41 15 38 49 -4 44 8 71 32 71 18 0 64 13 181 51 44 14 49 18 26 18 -16 1 -27
3 -24 6 3 3 35 3 72 -1 65 -7 66 -7 66 -36 0 -29 1 -30 37 -23 21 4 41 12 45
18 6 9 11 8 18 -3 9 -13 11 -13 20 0 8 13 10 12 10 -2 0 -10 -6 -18 -12 -19
-7 0 -4 -4 7 -9 18 -8 18 -9 -5 -9 -20 -1 -22 -3 -10 -11 10 -6 11 -10 3 -10
-7 0 -13 -9 -13 -20 0 -11 5 -20 10 -20 6 0 10 4 10 9 0 6 8 9 18 9 9 0 36 2
60 5 35 5 42 3 42 -11 0 -15 -2 -15 -11 -2 -8 11 -9 7 -4 -17 6 -29 4 -33 -15
-33 -13 0 -19 -4 -14 -12 4 -7 3 -8 -5 -4 -15 9 -53 -3 -46 -15 3 -5 -1 -6 -9
-3 -9 3 -15 9 -14 12 2 18 -3 32 -12 32 -12 0 -8 -43 5 -52 6 -5 5 -8 -2 -8
-7 0 -13 -11 -13 -25 0 -14 2 -25 5 -25 2 0 35 14 72 31 38 17 78 35 90 40 20
7 22 14 18 54 -3 25 -7 64 -9 88 l-5 42 50 16 49 16 0 -59 c0 -38 4 -57 10
-53 6 4 8 10 5 15 -9 14 79 37 108 27 23 -7 27 -15 27 -45 0 -20 3 -47 6 -59
5 -18 1 -25 -18 -32 -71 -27 -177 -84 -172 -93 4 -5 15 -8 25 -5 11 3 19 1 19
-4 0 -5 -8 -9 -17 -9 -24 0 23 -43 51 -46 12 -1 25 -3 29 -3 5 -1 5 -6 2 -12
-4 -6 -13 -8 -21 -5 -7 3 -16 1 -19 -4 -3 -5 7 -10 22 -12 l28 -4 -25 -11
c-14 -6 -32 -18 -39 -27 -8 -10 -22 -14 -35 -11 -12 3 -15 2 -7 -1 9 -4 -10
-18 -50 -39 -35 -17 -101 -50 -146 -73 -44 -23 -85 -42 -91 -42 -5 0 -17 -9
-27 -21 -19 -20 -19 -20 7 -10 15 6 50 22 78 36 53 27 79 27 44 0 -19 -14 -18
-14 3 -15 12 0 25 5 28 10 9 15 25 12 25 -5 0 -8 -12 -18 -27 -21 -30 -7 -66
-38 -56 -48 4 -3 -1 -6 -10 -6 -10 0 -17 5 -17 10 0 6 -5 10 -11 10 -6 0 -8
-8 -5 -18 4 -12 -4 -22 -27 -33 -41 -20 -42 -50 -2 -61 32 -8 100 7 126 29 8
7 22 13 30 13 8 0 34 12 59 26 25 15 63 27 85 28 22 1 64 3 93 4 31 1 52 7 52
13 0 8 -23 10 -76 7 -56 -4 -71 -2 -58 5 11 6 24 16 29 23 6 6 32 20 58 29 26
10 52 26 58 37 5 10 6 18 2 18 -4 0 -1 5 7 10 8 5 32 10 52 10 20 0 38 4 40 8
3 9 78 24 78 17 0 -3 -15 -9 -32 -14 -29 -8 -25 -9 32 -10 37 0 78 6 95 14 30
15 29 15 -24 11 -45 -3 -52 -1 -38 9 23 17 21 25 -5 26 -13 1 -1 5 26 11 35 6
52 6 60 -3 8 -8 5 -10 -14 -5 -21 6 -22 5 -7 -4 18 -12 75 -8 112 7 17 7 15 9
-15 14 l-35 5 29 9 c18 5 35 4 45 -2 12 -8 27 -5 56 11 l40 21 -33 3 c-18 2
-30 8 -27 13 6 8 -11 13 -42 12 -7 -1 -10 3 -7 8 5 9 24 7 54 -3 49 -17 95
-26 100 -19 3 4 14 13 25 19 18 10 17 11 -12 12 -18 0 -33 5 -33 10 0 6 -11
10 -24 10 -14 0 -27 4 -31 9 -3 5 8 9 25 9 17 -1 33 -5 36 -10 3 -4 25 -8 49
-8 86 0 103 26 24 36 -27 4 -47 10 -42 14 11 11 93 17 93 8 0 -5 -10 -9 -22
-9 -13 -1 -16 -3 -8 -5 8 -2 38 2 65 10 28 8 43 15 34 15 -9 1 -30 8 -45 16
l-29 15 28 0 c15 0 27 -4 27 -10 0 -5 15 -10 33 -10 68 0 104 24 50 33 -16 3
-8 4 17 4 25 0 54 5 65 11 17 10 12 11 -32 12 -29 0 -53 5 -53 10 0 6 -22 10
-49 10 -41 0 -51 4 -56 20 -3 11 -13 20 -21 20 -8 0 -14 4 -14 10 0 5 7 7 15
4 10 -4 15 0 15 15 0 26 -11 26 -78 1 -29 -11 -57 -20 -62 -20 -18 0 8 38 30
45 22 7 22 41 -1 57 -11 8 -11 9 3 4 11 -3 22 2 28 14 6 11 17 20 24 20 8 0
19 7 27 16 12 14 14 14 26 -2 7 -10 13 -25 13 -35 0 -10 7 -16 17 -15 10 0 18
-7 20 -19 1 -11 0 -14 -3 -7 -3 6 -10 12 -15 12 -6 0 -7 -5 -4 -10 3 -6 -1
-13 -11 -17 -14 -5 -14 -8 7 -25 13 -11 18 -17 11 -13 -8 4 -11 -1 -8 -17 3
-13 5 -29 5 -35 1 -17 197 -18 206 -2 4 6 21 9 39 8 17 -1 42 3 56 9 l25 11
-23 0 c-13 1 -31 9 -40 18 -16 16 -16 16 3 8 36 -15 92 -18 100 -4 5 8 4 10
-3 5 -7 -4 -12 -2 -12 3 0 6 -10 11 -22 12 l-23 0 23 9 c14 6 31 6 46 -1 17
-8 29 -8 42 0 17 9 16 10 -9 11 -16 0 -26 4 -22 10 3 5 22 7 41 4 20 -2 43 0
52 6 14 8 12 9 -10 10 -15 0 -30 5 -34 11 -5 9 3 10 28 5 19 -3 46 -3 58 2 22
8 22 9 -10 15 -18 4 -31 10 -28 13 4 3 23 1 44 -5 28 -8 41 -7 52 2 12 10 7
14 -29 23 -31 9 -37 12 -19 13 14 1 40 -3 58 -8 18 -6 41 -7 50 -3 11 5 2 9
-28 12 -55 6 -55 26 0 22 38 -4 55 10 28 21 -7 3 15 3 50 0 43 -4 62 -2 62 6
0 6 9 11 19 11 32 0 35 20 4 21 -15 0 -37 4 -48 9 -13 5 6 7 50 5 51 -3 62 -2
40 4 -28 9 -27 9 12 8 40 -1 75 12 40 14 -30 2 -35 4 -43 11 -4 4 16 6 45 3
28 -2 49 0 46 5 -3 5 7 11 22 13 l28 4 -27 2 c-16 0 -28 4 -28 9 0 4 19 6 43
5 42 -2 42 -2 10 8 -47 14 -41 19 16 12 34 -4 51 -2 56 7 5 8 4 11 -3 6 -6 -4
-41 -4 -77 0 -56 6 -65 10 -65 26 0 14 -5 18 -15 14 -20 -7 -19 4 3 20 15 12
14 13 -15 11 -17 -1 -29 -4 -27 -6 7 -8 -70 -34 -99 -34 -19 0 -24 -3 -16 -8
18 -11 -57 -43 -79 -34 -9 3 -13 3 -9 -1 11 -11 -145 -86 -170 -81 -12 2 -24
0 -27 -5 -2 -5 -3 -3 -2 4 2 7 14 12 27 10 23 -3 23 -2 4 13 -19 16 -19 16 5
11 14 -3 19 -3 12 0 -6 3 -10 10 -6 15 3 5 -3 9 -13 9 -15 1 -15 2 4 13 12 7
23 17 25 22 2 6 7 9 13 7 5 -2 5 2 -2 9 -10 10 -26 7 -78 -15 -43 -19 -73 -26
-90 -22 -14 4 -25 2 -25 -4 0 -5 -18 -19 -41 -30 -26 -14 -39 -26 -35 -35 3
-8 0 -17 -6 -21 -7 -5 -8 -2 -3 5 5 9 2 12 -11 9 -11 -2 -18 -10 -16 -17 1 -7
-2 -9 -9 -5 -15 9 -90 -17 -82 -29 3 -6 1 -7 -5 -3 -10 6 -85 -21 -178 -65
-22 -10 -45 -19 -51 -19 -6 0 -43 -14 -83 -30 -90 -37 -99 -37 -92 -4 3 16 -1
30 -9 36 -11 7 -9 8 5 4 12 -4 27 1 40 12 12 11 35 24 51 30 26 9 27 11 8 11
-20 1 -23 7 -25 44 -2 43 -4 75 -9 137 -4 48 6 60 49 60 28 0 33 -3 22 -10
-11 -7 -12 -12 -4 -17 8 -6 9 -24 4 -58 -4 -27 -7 -68 -5 -90 1 -22 -2 -43 -9
-47 -8 -6 -7 -8 2 -8 7 0 10 -4 7 -10 -10 -17 10 -11 112 31 54 22 116 46 138
54 22 7 64 22 92 34 29 11 59 18 68 15 8 -4 15 -1 15 5 0 6 12 12 28 12 l27 1
-30 8 c-23 6 -25 8 -8 9 42 2 53 12 53 47 0 19 -4 34 -10 34 -6 0 -9 26 -8 63
l2 62 3 -59 c4 -54 6 -58 26 -52 12 3 30 6 40 6 14 0 17 10 17 60 0 50 -3 60
-17 60 -15 0 -16 2 -3 10 8 5 18 10 23 10 4 0 7 -47 7 -105 0 -69 4 -105 11
-105 6 0 13 8 16 19 3 13 20 22 57 30 50 11 52 13 48 41 -2 17 -8 30 -13 30
-11 0 -12 100 -1 116 4 6 18 15 32 18 14 4 33 10 43 12 9 3 17 1 17 -5 0 -6
-13 -11 -30 -11 -28 0 -30 -2 -29 -37 1 -21 4 -49 8 -62 6 -22 8 -23 23 -8 20
20 28 12 28 -30 0 -23 5 -33 15 -33 8 0 15 6 15 14 0 7 15 17 33 22 26 8 33
15 35 42 2 18 -1 32 -7 32 -14 0 -14 90 -1 110 8 12 10 10 12 -10 1 -14 1 -40
0 -59 -2 -32 -1 -33 33 -29 34 4 35 3 35 -31 0 -27 3 -32 12 -23 13 13 48 16
48 5 0 -9 -133 -74 -195 -97 -102 -36 -98 -33 -79 -61 18 -27 28 -31 47 -15 7
6 21 18 32 26 11 9 14 12 6 8 -7 -3 -17 -1 -22 7 -4 7 -11 10 -16 6 -4 -5 -2
-12 6 -16 10 -6 9 -10 -5 -15 -22 -8 -23 -6 -14 21 7 17 15 21 44 18 28 -3 34
0 29 12 -4 10 -2 14 4 10 5 -3 27 5 48 20 30 20 39 23 46 12 8 -12 12 -11 23
4 11 14 15 15 19 5 3 -8 6 -6 6 5 1 10 4 16 9 14 4 -3 15 4 25 13 18 18 18 19
-7 35 -18 12 -23 21 -17 29 6 6 7 30 4 51 -8 58 -7 85 5 127 8 31 7 38 -7 41
-9 3 -4 5 12 6 15 0 27 -3 27 -9 0 -5 9 -10 20 -10 17 0 20 -7 20 -44 0 -25 5
-48 10 -51 6 -3 10 -15 10 -25 0 -16 -6 -19 -37 -17 l-37 2 -1 -42 c-1 -24 2
-43 6 -43 23 0 39 15 39 38 0 20 3 23 12 14 7 -7 28 -12 48 -12 26 0 31 3 20
10 -13 8 -12 13 4 40 13 23 15 35 7 43 -13 13 -15 59 -2 73 5 5 11 20 13 34 2
19 9 25 29 25 25 1 26 -2 26 -50 0 -27 1 -67 3 -87 2 -37 3 -38 39 -38 24 0
32 3 22 9 -15 10 -7 31 13 31 13 0 15 22 4 50 -13 32 -17 79 -8 85 6 4 8 10 5
14 -2 5 2 17 10 27 13 18 14 17 15 -12 0 -17 3 -34 7 -38 4 -4 9 -26 10 -48 2
-23 5 -43 7 -45 2 -3 26 -1 53 3 44 7 45 8 18 14 -21 4 -30 11 -30 25 -1 24
13 55 23 53 12 -2 42 14 38 21 -3 4 7 8 22 9 15 1 36 6 47 11 11 6 39 15 63
21 38 10 45 16 41 38 -2 8 46 18 133 28 l57 6 4 -43 4 -44 1 50 c2 48 4 51 43
70 23 11 62 20 87 20 41 0 48 3 66 34 l20 34 -25 -6 c-13 -3 -47 -12 -75 -20
-52 -15 -83 -9 -70 12 4 6 5 11 2 11 -19 0 -213 -54 -223 -62 -7 -5 -16 -7
-21 -4 -5 3 -36 -2 -68 -10 -106 -29 -119 -31 -139 -23 -16 6 -13 8 14 8 50 1
30 13 -29 17 -38 2 -50 0 -50 -11 0 -8 -6 -15 -12 -15 -7 -1 -2 -7 11 -14 22
-12 17 -15 -83 -42 -88 -24 -106 -32 -107 -49 -1 -17 -2 -17 -6 -2 -5 18 -28
23 -38 7 -3 -5 -11 -7 -19 -4 -7 3 -25 0 -41 -6 -19 -7 -31 -8 -39 0 -5 5 -17
10 -26 10 -13 0 -13 -2 0 -10 17 -11 25 -8 -125 -49 -293 -80 -343 -91 -374
-85 -23 5 -31 3 -31 -7 0 -16 -47 -39 -99 -49 -79 -15 -396 -102 -401 -110 -4
-7 -103 -40 -119 -40 -3 0 -6 29 -6 64 0 62 1 65 28 70 26 5 27 8 27 66 0 55
-2 60 -22 60 -42 1 5 19 67 26 l57 7 -3 -109 c-4 -122 -10 -115 74 -93 25 7
37 15 37 28 0 14 -6 17 -30 13 -30 -4 -30 -4 -30 44 0 27 -3 60 -7 74 -6 22
-5 24 10 11 15 -12 17 -11 17 3 0 23 -21 43 -51 49 -19 3 -18 5 9 6 17 0 32 4
32 9 0 9 116 32 165 32 33 0 35 -2 35 -33 0 -31 2 -33 28 -29 25 3 27 7 24 38
l-4 34 56 0 c50 0 56 -2 56 -21 0 -29 44 -22 48 7 2 17 14 25 47 33 66 17 119
15 111 -4 -3 -8 -1 -15 4 -15 6 0 11 -10 12 -22 1 -13 4 6 7 42 l6 65 50 2
c28 1 59 3 70 5 16 2 21 -3 23 -29 3 -34 21 -46 23 -15 1 9 1 20 1 23 -1 7 81
30 95 28 5 -1 25 -1 45 0 28 1 37 5 37 19 0 9 5 38 11 65 10 42 15 47 38 47
21 0 24 -2 12 -10 -13 -8 -13 -13 -2 -30 7 -11 10 -26 6 -33 -4 -7 2 -3 14 7
12 11 22 24 21 30 -4 31 2 66 11 66 5 0 7 -8 4 -17 -3 -10 2 -6 11 10 16 28
45 37 45 14 0 -7 11 -21 25 -31 17 -13 22 -23 16 -30 -6 -7 -6 -17 -2 -25 11
-17 36 43 27 65 -4 11 -1 14 11 12 10 -2 19 -12 21 -23 7 -44 12 -50 27 -34 8
8 16 27 17 42 3 33 28 37 28 4 0 -35 23 -77 43 -77 9 0 17 7 17 15 0 8 7 15
16 15 8 0 22 7 31 15 11 12 19 13 28 5 9 -8 14 -7 17 1 3 8 29 13 74 13 38 1
75 5 82 9 8 6 12 4 10 -5 -4 -18 39 -13 58 7 19 19 170 22 176 3 7 -19 99 11
125 41 12 14 22 29 23 32 0 4 -28 0 -62 -7 -69 -15 -130 -18 -111 -6 6 4 13
23 15 42 3 33 6 35 53 45 32 6 60 20 78 38 15 15 27 30 27 32 0 5 -34 4 -107
-2z m-2030 -1070 c-6 -83 -14 -103 -44 -103 -15 0 -19 8 -20 38 -1 37 -1 37
-9 7 -8 -31 -9 -30 -16 23 -2 18 -10 40 -18 48 -34 34 -2 61 76 63 l36 1 -5
-77z"/>
<path d="M4165 2703 l-161 -3 4 -35 4 -35 114 0 c107 0 114 -1 114 -20 0 -18
7 -20 55 -20 l55 0 0 60 c0 43 -4 59 -12 58 -7 -1 -85 -4 -173 -5z"/>
<path d="M6338 2629 c-3 -59 -3 -59 25 -59 23 0 27 -4 27 -28 0 -26 2 -27 39
-24 32 3 41 8 43 25 2 18 11 23 48 25 24 2 48 8 52 15 4 6 9 0 13 -15 4 -15 4
-32 0 -37 -4 -7 9 -11 37 -11 43 0 43 0 44 38 1 33 6 70 16 112 3 13 -22 15
-169 17 l-171 2 -4 -60z"/>
<path d="M8478 2482 l3 -138 -37 4 c-31 4 -36 2 -31 -11 3 -9 -1 -24 -10 -33
-15 -15 -15 -16 3 -12 11 2 20 13 22 26 5 31 40 29 48 -3 4 -16 13 -25 25 -25
18 0 19 9 19 145 0 90 4 145 10 145 6 0 10 -57 10 -150 0 -167 -5 -155 75
-162 27 -3 30 0 33 27 2 23 0 27 -7 15 -8 -12 -11 -12 -11 -1 0 7 -6 11 -14 8
-21 -8 -25 15 -22 123 3 106 19 152 43 122 12 -16 13 -16 7 1 -7 19 20 25 31
7 3 -5 32 -11 63 -11 31 -1 71 -5 87 -9 28 -7 29 -8 5 -10 -14 -1 -34 -5 -44
-9 -19 -7 -19 -8 2 -13 12 -4 20 -2 16 3 -3 5 6 9 20 9 14 0 26 -4 26 -10 0
-5 4 -10 10 -10 5 0 7 7 4 15 -5 11 -2 13 10 9 9 -3 14 -9 11 -13 -2 -4 14 -7
35 -7 22 1 40 -2 40 -6 0 -13 75 -9 89 5 10 10 11 8 5 -7 -6 -17 -3 -18 27
-13 31 5 113 -6 149 -20 8 -3 23 -7 32 -8 29 -3 32 -12 36 -91 3 -52 1 -74 -8
-74 -6 0 -10 -10 -8 -22 2 -18 12 -24 40 -29 l37 -6 3 111 3 111 45 5 c44 5
43 6 -35 18 -94 15 -233 41 -257 48 -10 3 -18 13 -18 22 0 15 -13 17 -117 13
-65 -1 -165 2 -223 9 -134 15 -147 17 -195 29 -22 6 -51 11 -65 11 l-25 0 3
-138z"/>
<path d="M4005 2581 c-3 -2 2 -16 11 -32 8 -16 16 -42 18 -59 2 -17 6 -33 9
-36 3 -3 23 11 44 33 35 35 42 38 93 37 31 -1 73 -9 94 -19 21 -10 45 -18 53
-18 12 0 14 -9 9 -46 -3 -25 -10 -49 -15 -54 -4 -4 -70 -7 -145 -5 -81 2 -137
-1 -139 -7 -2 -5 -1 -20 1 -32 4 -23 6 -23 153 -23 l149 0 0 -66 c0 -57 2 -65
16 -60 12 5 15 2 9 -11 -4 -10 -8 -27 -9 -38 -1 -18 5 -19 122 -18 120 1 125
2 158 29 19 16 34 32 34 36 0 5 -57 8 -127 8 -143 0 -177 6 -169 27 3 8 1 11
-4 8 -6 -4 -10 11 -11 37 -1 24 -2 48 -4 53 -1 6 -3 65 -3 132 l-2 122 -171 3
c-94 2 -172 1 -174 -1z"/>
<path d="M7928 2494 c3 -39 0 -54 -7 -50 -6 4 -11 15 -11 25 0 12 -13 21 -37
29 -20 6 -39 9 -41 7 -3 -3 -7 -22 -9 -44 l-4 -39 51 -11 c67 -14 70 -14 86 7
12 16 13 15 9 -5 -2 -13 0 -23 5 -23 13 0 21 34 14 56 -5 16 -4 17 6 4 9 -12
10 -7 6 25 -3 22 -6 46 -6 53 0 8 -8 10 -26 6 -19 -5 -25 -4 -20 5 4 6 1 11
-6 11 -11 0 -13 -13 -10 -56z"/>
<path d="M6483 2503 l-143 -4 0 -32 c0 -17 -3 -56 -6 -84 l-7 -53 134 0 c74 0
151 3 172 7 l39 6 -5 53 c-3 30 -1 57 4 60 5 3 7 9 4 14 -3 5 -1 11 5 15 18
11 0 25 -28 23 -15 -1 -91 -4 -169 -5z"/>
<path d="M3975 2481 c-6 -5 -39 -19 -75 -31 -35 -12 -76 -28 -90 -35 -14 -7
-57 -24 -96 -38 -38 -13 -89 -33 -114 -45 -110 -50 -184 -72 -241 -72 -55 0
-58 1 -62 28 -3 22 -4 20 -6 -10 -1 -31 2 -38 18 -38 11 0 23 -5 27 -11 4 -6
21 -8 43 -5 26 4 30 3 16 -4 l-20 -9 20 -1 20 -1 -20 -9 c-26 -11 -44 -12 -27
-1 10 6 4 10 -18 15 -32 6 -70 -7 -70 -24 0 -4 -14 -11 -31 -15 -17 -4 -28 -9
-25 -12 8 -8 80 19 94 36 8 10 11 11 6 2 -5 -10 -3 -13 8 -9 9 4 15 0 15 -8 0
-10 -7 -12 -21 -9 -18 5 -17 3 4 -10 14 -9 17 -14 8 -11 -10 3 -26 9 -35 12
-17 5 -17 5 0 -9 22 -18 22 -28 0 -20 -10 4 -14 3 -9 -5 4 -7 -8 -16 -34 -23
-22 -7 -40 -15 -40 -18 0 -3 -14 -13 -32 -20 -18 -8 -27 -16 -21 -18 7 -3 22
1 34 7 16 9 24 9 33 0 8 -8 7 -10 -4 -6 -18 6 -43 -12 -53 -37 -6 -16 2 -17
90 -16 60 1 91 4 82 10 -10 6 -8 9 9 9 36 0 185 72 170 82 -8 5 -2 8 17 9 26
0 27 2 10 9 -16 7 -14 9 15 9 39 1 323 138 314 153 -3 4 1 8 8 8 8 0 23 6 33
14 18 13 18 15 3 38 -15 23 -15 28 -2 54 9 16 28 41 45 56 16 15 29 29 29 32
0 9 -15 7 -25 -3z"/>
<path d="M9481 2461 c14 -3 40 -18 57 -33 32 -27 32 -27 32 -127 0 -89 2 -101
19 -111 11 -5 28 -10 39 -10 17 0 20 10 26 87 3 48 11 92 16 97 7 7 27 4 57
-7 27 -9 68 -20 92 -23 59 -9 137 -40 133 -53 -1 -6 7 -11 19 -11 12 0 23 -8
26 -20 4 -16 14 -20 44 -20 22 0 39 -4 39 -10 0 -5 11 -10 25 -10 14 0 25 -4
25 -10 0 -5 7 -10 15 -10 8 0 15 -7 15 -15 0 -8 11 -25 25 -39 26 -26 32 -46
15 -46 -5 0 -10 5 -10 10 0 6 -6 6 -13 -2 -26 -24 -8 -47 42 -53 25 -3 66 -12
91 -20 25 -8 59 -15 76 -15 35 0 59 -22 51 -44 -8 -21 10 -32 81 -50 78 -20
72 -20 72 4 0 16 5 19 24 14 23 -5 23 -4 16 35 -6 31 -4 41 8 46 8 3 17 3 20
0 3 -3 -1 -5 -9 -6 -20 -1 52 -27 78 -28 31 -1 30 -58 -1 -64 -16 -3 -15 -5 7
-6 24 -1 27 2 27 33 0 29 3 33 20 29 19 -5 20 0 20 155 l0 160 -42 5 c-24 4
-87 11 -140 18 -85 10 -98 14 -98 30 0 16 -8 19 -59 19 -33 0 -63 -5 -67 -11
-4 -7 -23 -9 -53 -5 -25 3 -161 22 -301 41 -140 19 -320 46 -400 60 -134 23
-225 32 -159 16z"/>
<path d="M6320 2219 c0 -20 -3 -21 -147 -18 -82 2 -158 6 -170 11 -30 10 -30
-8 0 -46 20 -25 26 -27 45 -17 12 7 22 8 22 2 0 -5 12 -7 28 -4 15 2 70 6 121
8 147 6 309 65 180 65 -22 0 -49 5 -60 10 -16 9 -19 7 -19 -11z"/>
<path d="M1483 2167 c-69 -16 -56 -37 22 -37 63 0 65 -1 65 -26 0 -24 2 -25
52 -22 l52 3 1 47 2 47 -76 -1 c-42 -1 -95 -6 -118 -11z"/>
<path d="M7620 2021 c8 -6 11 -11 6 -11 -5 0 1 -8 12 -19 12 -10 18 -22 14
-26 -4 -4 4 -2 17 5 13 6 21 8 18 3 -4 -5 9 -16 28 -23 19 -8 35 -17 35 -22 0
-4 7 -8 16 -8 9 0 22 -6 28 -14 6 -7 38 -23 71 -36 33 -13 124 -56 202 -97 78
-40 146 -73 152 -73 6 0 27 -12 48 -26 30 -20 46 -25 78 -21 22 3 34 3 27 0
-9 -3 -4 -10 13 -19 32 -16 49 -18 40 -4 -3 6 -1 10 5 10 6 0 15 -10 20 -22 6
-16 9 -18 9 -6 1 9 7 19 14 22 9 5 9 7 -1 12 -99 46 -259 134 -254 140 4 4 1
4 -6 -1 -20 -11 -97 25 -80 38 10 6 8 7 -4 4 -19 -6 -78 13 -78 25 0 4 -9 8
-19 8 -11 0 -75 28 -143 61 -68 34 -128 62 -135 62 -7 0 -15 7 -18 15 -3 8
-12 11 -20 8 -8 -3 -15 -2 -15 3 0 4 -6 8 -12 9 -7 1 -29 4 -48 8 -26 4 -31 3
-20 -5z"/>
<path d="M7516 1962 l-70 -3 30 -18 c16 -10 65 -37 109 -60 74 -40 83 -42 132
-36 34 4 53 3 53 -4 0 -5 -19 -11 -42 -13 l-43 -3 42 -22 c32 -18 59 -23 112
-23 79 0 106 -17 34 -22 l-47 -3 60 -36 c32 -19 77 -44 99 -55 22 -10 43 -23
46 -27 4 -5 18 -10 32 -10 14 -1 23 -5 20 -10 -2 -4 11 -14 31 -22 19 -8 37
-19 41 -25 3 -5 20 -10 36 -10 17 0 28 -3 26 -7 -3 -5 47 -7 110 -5 l115 3
-36 20 c-20 10 -41 19 -47 19 -6 0 -17 7 -25 15 -9 8 -24 15 -35 15 -10 0 -19
7 -19 15 0 10 -10 15 -30 15 -16 0 -30 4 -30 8 0 5 -33 24 -72 42 -40 19 -75
36 -78 40 -8 9 -136 70 -149 70 -6 0 -11 3 -11 8 0 4 -19 16 -43 27 -23 11
-44 22 -47 25 -3 3 -27 14 -55 25 -27 10 -52 21 -55 24 -7 9 -81 39 -105 43
-11 2 -51 2 -89 0z"/>
<path d="M9570 1860 c0 -56 -2 -60 -23 -60 -12 0 -28 9 -35 20 -7 11 -19 20
-27 20 -10 0 -15 10 -15 30 0 27 -3 30 -30 30 -16 0 -33 0 -37 0 -5 0 -9 -11
-11 -25 -3 -20 1 -25 17 -25 12 0 21 -4 21 -9 0 -5 16 -15 35 -21 19 -6 34
-14 33 -18 -1 -4 1 -17 6 -29 7 -21 19 -27 105 -46 35 -8 51 14 51 71 0 36 4
49 15 49 8 0 12 -4 9 -9 -3 -4 4 -8 15 -8 11 0 23 -4 26 -10 3 -5 0 -10 -8
-10 -8 0 -22 -10 -33 -22 -10 -12 -13 -18 -6 -14 7 4 12 1 12 -8 0 -9 21 -25
50 -37 53 -23 90 -59 90 -89 0 -26 146 -54 174 -34 29 20 64 17 123 -10 51
-24 90 -66 79 -85 -4 -6 -4 -21 0 -35 5 -21 10 -24 33 -20 28 6 172 -20 200
-35 11 -7 18 -3 26 12 14 28 97 37 121 13 8 -9 21 -16 29 -16 7 0 34 -18 60
-39 26 -22 65 -44 86 -49 l39 -10 0 114 0 113 -97 30 c-54 16 -117 35 -140 42
-24 7 -43 18 -43 26 0 18 64 17 93 -2 12 -8 59 -23 105 -33 l83 -20 -3 46 -3
46 -102 24 -103 23 0 44 c0 44 0 44 28 35 15 -5 54 -14 87 -19 33 -5 68 -12
78 -16 14 -6 17 -1 16 31 -1 22 -3 31 -6 22 -3 -12 -14 -18 -31 -18 -43 0
-156 30 -164 43 -5 8 -8 7 -8 -4 0 -15 -6 -15 -62 -3 -95 20 -90 23 -86 -51 2
-37 -1 -67 -7 -70 -5 -3 15 -3 45 -1 33 2 67 -1 85 -9 27 -12 21 -13 -72 -14
-62 -1 -103 -5 -103 -11 0 -5 -7 -10 -15 -10 -16 0 -644 179 -737 211 -32 10
-60 19 -63 19 -3 0 -5 -27 -5 -60z"/>
<path d="M420 1883 c-14 -3 -27 -9 -30 -13 -3 -4 -23 -9 -45 -11 -22 -1 -46
-7 -52 -12 -13 -9 -19 -77 -7 -77 3 0 48 11 100 25 52 14 96 25 99 25 3 0 5
16 5 35 0 37 -6 40 -70 28z"/>
<path d="M8756 1820 c-7 -58 -8 -59 -34 -55 -15 2 -44 7 -64 10 -21 3 -38 10
-38 15 0 6 -14 10 -31 10 -18 0 -28 -4 -24 -10 4 -6 16 -8 27 -4 14 4 18 2 14
-5 -4 -7 1 -11 13 -11 10 0 21 -5 23 -11 5 -14 136 -29 278 -30 105 -1 160
-11 241 -43 10 -5 16 -2 16 8 0 8 -6 12 -14 9 -8 -3 -13 0 -11 7 4 17 -49 43
-203 99 -74 27 -146 54 -160 59 -27 11 -27 10 -33 -48z"/>
<path d="M8867 1638 c-7 -4 -20 -5 -29 -2 -15 4 -18 -1 -19 -28 l-1 -33 -8 30
c-4 17 -8 24 -9 16 -1 -11 -14 -13 -61 -8 -39 5 -60 3 -60 -4 0 -6 9 -8 20 -4
12 4 20 2 20 -5 0 -6 -10 -10 -22 -9 -13 2 -33 -1 -44 -4 -22 -8 -103 18 -115
35 -10 15 -39 -4 -39 -26 0 -16 2 -18 9 -7 5 7 14 10 21 6 9 -6 9 -10 -1 -17
-10 -7 -8 -9 7 -5 14 3 21 0 20 -10 0 -8 28 -32 64 -54 36 -21 70 -42 75 -46
27 -22 88 -53 104 -53 10 0 37 -14 60 -30 25 -19 49 -29 59 -25 13 3 18 -1 19
-15 2 -19 -1 -19 -55 9 -75 38 -191 91 -200 91 -4 0 -41 18 -83 39 -77 39
-160 58 -200 46 -17 -6 -19 -9 -8 -16 9 -6 10 -9 2 -9 -6 0 -15 5 -18 10 -4 7
-24 8 -48 5 -54 -8 -58 -13 -19 -21 18 -4 32 -10 32 -14 0 -4 22 -19 49 -33
43 -22 57 -24 116 -19 50 4 66 2 61 -7 -4 -6 -17 -11 -29 -12 -60 -2 -58 -14
8 -47 35 -18 73 -34 84 -35 11 0 18 -4 15 -8 -8 -13 27 -32 57 -31 16 0 27 -3
24 -8 -8 -13 42 -43 74 -44 17 -1 27 -6 24 -13 -2 -6 4 -14 14 -16 33 -10 328
-6 312 4 -9 6 -10 9 -2 9 7 0 10 7 7 15 -7 17 14 11 54 -15 26 -18 30 -43 5
-38 -10 2 -17 10 -15 18 2 10 -3 9 -21 -3 -13 -8 -39 -17 -58 -19 l-34 -4 28
-12 c15 -6 27 -16 27 -21 0 -5 14 -14 30 -20 30 -10 30 -11 16 -34 -13 -19
-23 -23 -53 -20 -36 2 -36 2 -14 -14 19 -12 38 -14 97 -9 81 7 145 0 141 -16
-1 -6 21 -20 48 -31 28 -12 52 -24 55 -28 6 -9 120 -8 120 1 0 9 -47 30 -66
30 -8 0 -24 11 -36 25 -12 14 -39 30 -60 36 -32 8 -38 13 -33 30 8 24 -36 43
-78 35 -26 -5 -27 -4 -13 10 22 22 20 25 -11 19 -27 -5 -27 -5 -6 6 19 10 31
9 63 -6 22 -10 40 -22 40 -27 0 -5 17 -16 38 -24 20 -9 66 -29 100 -45 35 -17
65 -29 68 -27 11 11 -12 49 -32 54 -13 3 -24 10 -24 15 0 6 8 5 19 -1 27 -14
51 -13 51 3 -1 6 -73 48 -160 91 -88 43 -160 83 -160 88 0 5 -4 7 -8 4 -5 -3
-29 13 -53 35 -24 22 -37 40 -29 39 35 -5 43 -1 30 15 -7 8 -18 15 -24 15 -13
0 -46 55 -46 76 0 10 -8 13 -25 10 -14 -3 -25 0 -25 5 0 5 6 9 13 9 8 0 7 4
-3 10 -9 6 -10 10 -3 10 6 0 14 -4 17 -9 8 -13 42 -20 56 -11 22 13 -46 42
-83 36 -25 -5 -27 -4 -12 3 18 9 18 10 2 10 -37 2 10 31 52 33 40 1 41 2 41
38 l0 36 -151 0 c-83 -1 -156 -4 -162 -8z"/>
<path d="M10494 1356 c17 -14 18 -16 3 -16 -9 0 -17 -7 -17 -15 0 -9 9 -15 25
-15 22 0 24 -3 15 -19 -8 -16 -6 -22 7 -30 17 -10 17 -10 0 -11 -10 0 -20 7
-23 15 -4 8 -9 15 -13 15 -9 0 -13 -125 -8 -240 l2 -45 -45 -12 c-41 -11 -35
-12 75 -10 118 2 120 2 123 -20 4 -27 -13 -30 -26 -6 -8 14 -23 15 -113 10
-56 -4 -105 -11 -109 -17 -7 -11 -100 20 -125 40 -6 5 -33 17 -60 28 -44 17
-53 18 -70 6 -10 -8 -26 -13 -34 -13 -13 1 -13 2 1 6 9 2 19 10 22 18 4 11 0
12 -19 5 -25 -10 -36 3 -12 14 6 3 0 3 -14 0 -18 -4 -38 3 -65 22 -21 15 -30
24 -19 19 41 -15 59 -16 26 0 -37 17 -85 11 -60 -7 11 -8 10 -8 -4 -4 -10 3
-23 6 -29 6 -6 0 -7 7 -4 15 8 21 -20 31 -39 15 -13 -11 -18 -10 -30 6 -8 10
-15 14 -15 8 0 -6 -10 -9 -24 -7 -17 4 -29 -3 -44 -22 -12 -15 -19 -31 -16
-36 3 -5 -2 -6 -11 -2 -13 5 -14 7 -3 14 9 6 9 9 1 9 -6 0 -19 -7 -28 -16 -13
-14 -21 -15 -41 -5 -41 18 -41 13 -1 -14 20 -14 36 -29 36 -33 -4 -25 3 -53
17 -66 8 -9 13 -20 9 -26 -3 -6 1 -7 12 -4 10 3 7 -2 -7 -10 -17 -11 -54 -16
-120 -17 -52 0 -106 -5 -120 -10 -25 -9 -25 -9 3 -5 15 2 27 0 27 -5 0 -4 -17
-9 -37 -11 l-38 -3 32 -21 c38 -24 102 -22 82 2 -19 23 -2 28 42 14 23 -8 37
-16 30 -18 -14 -5 -15 -32 -1 -32 6 0 10 -5 10 -10 0 -7 -13 -8 -35 -4 -46 8
-45 -6 2 -31 21 -11 65 -38 99 -60 33 -22 76 -49 95 -60 73 -42 140 -82 220
-132 46 -28 120 -73 164 -99 44 -26 119 -71 166 -100 48 -30 89 -54 92 -54 3
0 29 -16 58 -35 l54 -35 117 0 118 0 0 283 0 284 -42 18 c-24 9 -75 33 -115
52 -39 18 -81 36 -92 38 -12 2 -26 7 -31 10 -12 7 -14 35 -2 36 4 0 26 2 49 5
34 5 44 2 49 -10 7 -19 54 -45 133 -75 l52 -19 -3 80 -3 80 -65 25 c-50 19
-69 22 -83 13 -22 -13 -37 -5 -37 20 0 10 -6 21 -12 23 -10 4 -10 6 0 6 14 1
17 31 2 31 -5 0 -10 7 -10 16 0 8 -4 13 -9 10 -5 -3 -11 3 -14 14 -3 11 -2 20
2 20 9 0 8 31 -2 48 -6 8 -3 10 7 6 45 -17 39 33 -7 60 -30 17 -30 19 -12 27
17 6 17 8 3 8 -10 1 -18 7 -18 15 0 9 7 12 23 9 18 -4 19 -3 7 6 -12 9 -11 11
8 11 20 0 33 18 15 21 -5 1 -17 3 -28 5 -87 16 -91 16 -71 0z"/>
<path d="M625 899 c-276 -130 -300 -141 -340 -157 -22 -8 -50 -22 -62 -30 -12
-7 -28 -10 -34 -6 -8 4 -9 3 -5 -4 5 -8 0 -12 -13 -12 -11 0 -26 -7 -35 -15
-14 -15 -41 -23 -81 -24 -17 -1 -18 -3 -5 -11 11 -7 6 -8 -17 -4 -32 6 -47 -9
-20 -19 9 -4 9 -6 0 -6 -10 -1 -13 -48 -13 -202 l0 -200 43 23 c23 13 53 35
66 50 14 16 34 28 48 28 20 0 152 70 401 213 24 13 40 27 35 30 -6 4 -35 5
-66 3 -32 -2 -57 -2 -57 -1 0 2 15 12 33 24 30 19 30 21 9 21 -46 0 -15 25 39
31 30 4 73 16 97 26 l43 20 -38 6 c-21 4 -49 4 -63 2 -18 -4 -16 -2 7 7 39 16
52 28 30 28 -10 0 -17 5 -17 10 0 6 7 10 15 10 8 0 15 5 15 10 0 6 15 10 32
10 l32 0 -24 -17 -25 -18 49 -6 c38 -4 58 0 94 18 l45 23 -36 0 c-20 0 -37 5
-37 10 0 6 6 10 13 11 23 1 -48 20 -77 20 -16 0 -38 4 -47 10 -24 12 -35 -7
-12 -20 14 -8 7 -9 -27 -4 -41 6 -44 5 -31 -10 11 -15 11 -17 -2 -17 -8 0 -18
6 -20 13 -4 9 -8 9 -15 -2 -8 -11 -15 -11 -42 2 -27 14 -30 14 -20 1 15 -17
14 -19 -25 -28 -19 -4 -25 -3 -17 2 11 7 10 10 -3 16 -24 9 -24 9 -19 -20 3
-18 1 -25 -8 -22 -7 3 -14 13 -16 24 -2 15 8 24 40 38 52 23 361 175 367 182
2 2 -4 4 -15 4 -10 0 -86 -32 -169 -71z"/>
<path d="M875 823 c-50 -4 -90 -23 -48 -23 34 0 52 -10 46 -26 -4 -11 4 -14
33 -14 l38 0 -20 -20 c-13 -14 -37 -21 -74 -24 -30 -2 -73 -8 -95 -12 l-40 -8
40 -7 c22 -4 48 -3 57 2 9 5 32 11 51 13 27 4 204 91 227 113 2 2 -20 3 -50 2
-30 -1 -68 0 -85 3 -16 2 -52 3 -80 1z"/>
<path d="M4516 468 c3 -4 363 -8 801 -8 438 0 793 3 790 6 -9 10 -1597 12
-1591 2z"/>
</g>
</svg>
