<?xml version="1.0" standalone="no"?>
<!DOCTYPE svg PUBLIC "-//W3C//DTD SVG 20010904//EN"
 "http://www.w3.org/TR/2001/REC-SVG-20010904/DTD/svg10.dtd">
<svg version="1.0" xmlns="http://www.w3.org/2000/svg"
 width="945.000000pt" height="756.000000pt" viewBox="0 0 945.000000 756.000000"
 preserveAspectRatio="xMidYMid meet">
<metadata>
Created by potrace 1.15, written by Peter Selinger 2001-2017
</metadata>
<g transform="translate(0.000000,756.000000) scale(0.100000,-0.100000)"
fill="#000000" stroke="none">
<path d="M1587 7538 c-30 -32 -60 -89 -63 -117 -18 -218 -18 -209 21 -341 9
-30 20 -89 24 -130 19 -168 34 -251 45 -247 6 2 13 14 15 28 1 13 6 26 10 29
4 3 13 39 19 80 29 182 47 239 90 283 44 47 77 56 152 41 61 -11 80 -18 157
-50 17 -8 47 -14 67 -14 20 0 36 -4 36 -10 0 -6 27 -10 61 -10 42 0 65 -5 73
-14 18 -24 176 -24 200 -1 8 8 20 15 26 15 10 0 74 49 140 108 13 12 28 22 32
22 3 0 13 6 20 13 20 20 125 88 213 140 44 26 98 63 120 82 35 31 46 35 96 35
60 0 77 -10 165 -92 21 -21 42 -38 47 -38 4 0 7 -7 7 -15 0 -8 6 -15 13 -15
11 0 44 -42 72 -91 46 -81 75 -141 75 -154 0 -8 5 -15 10 -15 13 0 63 -107 66
-140 7 -98 10 -104 44 -70 24 24 24 20 -1 116 -11 43 -21 87 -22 97 -1 9 -5
17 -9 17 -4 0 -8 11 -8 24 0 14 -4 27 -9 31 -6 3 -9 13 -9 23 2 37 -23 137
-42 169 -11 19 -20 43 -20 54 0 10 -4 19 -9 19 -5 0 -16 18 -24 39 -9 22 -21
42 -26 46 -6 3 -18 21 -27 40 l-16 35 -907 -1 c-893 -1 -906 -1 -924 -21z"/>
<path d="M2719 6516 c-9 -9 -194 -46 -258 -51 -123 -11 -301 -73 -301 -105 0
-5 -16 -18 -36 -31 -20 -12 -50 -35 -67 -51 -18 -16 -44 -36 -58 -43 -32 -17
-45 -45 -27 -57 7 -4 48 -8 91 -8 42 0 77 -2 77 -5 0 -3 -7 -16 -16 -29 -13
-21 -13 -28 0 -59 8 -20 12 -37 10 -40 -3 -2 2 -10 11 -17 8 -7 15 -10 15 -6
0 7 31 -17 69 -53 19 -19 36 -24 76 -24 49 0 72 6 180 43 58 20 86 59 66 92
-6 10 -11 23 -11 29 0 7 -13 25 -30 41 -16 15 -30 33 -30 39 0 5 -4 8 -9 4 -5
-3 -12 -1 -16 5 -3 5 -17 10 -31 10 -13 0 -24 5 -24 10 0 6 -18 10 -39 10 -23
0 -41 5 -44 13 -7 20 60 75 113 94 28 10 50 21 50 25 0 5 16 8 35 8 19 0 44 4
57 9 13 5 55 16 93 25 170 38 251 86 196 116 -19 10 -133 14 -142 6z"/>
<path d="M2963 6344 c-38 -19 -43 -51 -19 -109 8 -18 12 -35 10 -37 -2 -3 7
-15 21 -28 14 -13 25 -29 25 -36 0 -6 7 -15 16 -18 24 -9 197 -7 212 3 17 10
6 81 -13 81 -7 0 -15 8 -19 18 -5 17 -26 52 -36 62 -3 3 -10 14 -16 25 -28 50
-119 69 -181 39z"/>
<path d="M7775 6138 c-38 -5 -85 -11 -103 -14 l-33 -5 21 -26 c11 -14 20 -31
20 -38 0 -13 -51 -18 -60 -6 -9 12 -97 51 -114 51 -30 0 -56 -20 -56 -43 0
-16 -3 -18 -9 -8 -18 28 -32 -1 -30 -60 2 -52 -1 -63 -24 -87 -19 -20 -25 -34
-20 -51 4 -17 1 -28 -11 -37 -11 -7 -13 -15 -7 -18 6 -4 93 -8 193 -10 181 -4
231 -9 256 -29 9 -7 11 -6 7 6 -5 11 2 17 24 22 16 3 35 13 41 20 14 17 117
67 145 70 45 5 77 -36 130 -170 8 -19 9 -19 12 2 5 27 -46 129 -82 166 -20 20
-24 27 -12 27 9 0 29 12 44 26 15 14 45 35 66 46 41 21 147 119 147 136 0 6
-9 8 -20 5 -14 -4 -20 0 -20 11 0 25 -24 30 -62 13 -18 -8 -40 -15 -48 -16
-24 0 -90 -25 -90 -33 0 -5 -18 -8 -39 -8 -28 0 -44 6 -53 19 -15 21 -90 51
-123 49 -11 0 -51 -5 -90 -10z"/>
<path d="M7478 5764 c-3 -3 -30 -8 -59 -11 -30 -3 -60 -11 -68 -18 -20 -19
102 -31 182 -17 59 9 65 8 125 -20 35 -17 65 -29 67 -26 11 11 -39 71 -70 84
-33 13 -166 20 -177 8z"/>
<path d="M8473 5741 c-20 -21 -93 -54 -101 -46 -3 2 3 7 12 11 9 3 13 10 10
15 -6 11 -38 -4 -77 -37 -37 -31 -44 -30 -52 6 -8 34 -25 41 -19 8 2 -13 2
-17 -2 -10 -9 19 -52 15 -58 -6 -4 -10 -12 -19 -19 -19 -6 0 -48 -8 -92 -19
-84 -19 -105 -19 -117 -1 -5 8 -8 6 -8 -5 0 -20 -21 -33 -71 -42 -21 -4 -42
-13 -48 -20 -13 -15 -45 -10 -70 11 -61 52 -74 63 -78 63 -2 0 -20 -7 -40 -15
-22 -9 -67 -15 -119 -15 -66 0 -84 -3 -84 -14 0 -13 -4 -13 -27 0 -16 7 -34
14 -40 14 -7 0 -13 5 -13 10 0 6 -4 10 -10 10 -18 0 -10 -50 10 -62 22 -14 27
-30 8 -27 -7 1 -21 -1 -31 -6 -12 -5 -23 -1 -37 15 -16 18 -23 20 -34 11 -11
-10 -16 -9 -24 5 -12 21 -27 12 -48 -28 -19 -36 -22 -121 -6 -141 7 -8 9 -16
7 -19 -3 -3 11 -18 30 -33 20 -15 35 -29 32 -31 -2 -2 -27 8 -56 22 -60 28
-75 23 -87 -29 -3 -18 -39 -96 -78 -174 -40 -79 -69 -143 -65 -143 4 0 9 6 12
13 6 17 19 2 22 -25 1 -13 3 -26 4 -30 0 -5 8 -8 17 -8 11 0 15 -6 11 -19 -3
-14 -1 -18 9 -14 16 6 20 -22 4 -32 -5 -3 -10 -15 -10 -26 0 -11 -7 -19 -16
-19 -28 0 -11 -35 19 -38 15 -2 33 -12 40 -23 6 -10 17 -19 24 -19 7 0 13 -6
13 -13 0 -7 9 -18 20 -25 11 -7 20 -19 20 -27 0 -8 9 -15 20 -15 11 0 20 -7
20 -15 0 -18 47 -65 65 -65 8 0 15 -9 15 -20 0 -17 7 -20 40 -20 33 0 40 -3
40 -20 0 -11 6 -20 14 -20 7 0 16 -9 19 -21 3 -11 15 -23 26 -26 12 -3 21 -13
21 -22 0 -10 14 -27 30 -39 17 -13 30 -29 30 -37 0 -8 5 -15 10 -15 6 0 10 -6
10 -14 0 -13 20 -26 41 -26 5 0 9 9 9 20 0 11 7 20 15 20 8 0 15 8 15 18 1 15
2 15 15 -2 13 -17 15 -18 15 -3 0 18 -17 53 -37 75 -7 7 -17 32 -23 55 -6 23
-15 50 -20 59 -13 23 -13 118 0 118 5 0 12 -12 16 -27 3 -16 9 -37 14 -48 5
-11 17 -49 26 -85 9 -36 21 -69 25 -74 5 -6 9 -20 9 -33 0 -32 114 -146 160
-159 19 -6 34 -15 33 -20 -2 -13 71 -12 77 1 3 6 -20 18 -50 28 -30 9 -60 24
-66 32 -6 8 -17 15 -24 15 -8 0 -10 8 -6 26 4 14 3 23 -2 20 -14 -9 -33 10
-26 27 3 9 10 17 15 17 5 0 9 9 9 20 0 11 5 20 10 20 13 0 13 47 0 55 -6 3 -7
18 -4 32 5 18 3 24 -5 19 -7 -5 -11 3 -11 23 0 21 5 31 15 31 18 0 18 8 4 66
-10 39 -9 48 4 62 14 13 17 13 20 1 13 -42 27 -100 38 -149 15 -73 34 -108 56
-106 12 1 17 -5 15 -16 -4 -22 16 -24 24 -3 8 20 21 19 28 -2 3 -10 3 0 0 22
-6 45 -12 55 -22 38 -6 -10 -7 38 -3 140 2 42 21 32 21 -12 0 -49 17 -137 33
-173 18 -42 37 -35 37 15 0 31 3 38 10 27 5 -8 10 -27 10 -42 0 -27 19 -41 21
-15 0 6 3 24 5 40 3 19 0 27 -10 27 -16 0 -26 21 -26 56 0 13 -5 24 -10 24
-12 0 6 34 33 62 22 23 27 23 27 -4 0 -21 1 -21 14 -3 11 15 11 22 0 44 -8 14
-14 32 -14 40 0 7 -8 28 -19 45 -21 36 -37 136 -21 136 5 0 10 -9 10 -19 0
-11 6 -32 14 -48 8 -15 20 -41 28 -58 7 -16 19 -36 26 -43 6 -7 12 -18 12 -23
0 -5 11 -26 23 -47 13 -20 27 -52 30 -70 6 -29 4 -35 -13 -39 -11 -3 -20 -9
-20 -13 0 -5 -3 -16 -6 -25 -5 -13 0 -16 27 -15 50 0 69 -2 69 -11 0 -4 -5 -9
-10 -11 -6 -2 14 -2 44 -1 30 0 59 4 65 7 6 4 21 4 35 0 24 -6 96 12 106 26 3
4 21 15 40 25 44 23 119 78 120 88 0 11 -18 8 -50 -8 -17 -9 -30 -12 -30 -7 0
15 24 32 47 32 22 0 31 14 16 23 -5 2 -2 2 6 0 8 -2 20 6 28 17 8 11 21 20 30
20 10 0 4 -9 -16 -27 -30 -27 -39 -43 -23 -43 4 0 34 26 67 58 33 31 73 65 88
75 14 9 33 30 41 45 8 15 38 43 65 62 55 38 65 54 28 45 -22 -6 -82 4 -119 20
-13 5 -18 2 -18 -8 0 -16 52 -32 92 -29 13 0 15 -2 6 -11 -6 -7 -27 -13 -47
-15 -65 -5 -71 -7 -72 -17 0 -5 15 -12 33 -15 27 -5 29 -7 13 -12 -11 -4 -33
-8 -50 -8 -68 -4 -81 0 -99 31 -13 22 -15 30 -5 25 8 -3 22 -9 32 -12 9 -4 17
-10 17 -15 0 -11 11 -11 30 1 12 7 10 13 -11 32 -37 34 -131 95 -154 100 -13
2 -20 11 -19 25 0 12 -5 19 -11 17 -15 -6 -35 38 -35 76 0 36 17 39 26 5 7
-28 19 -32 28 -10 3 8 10 15 16 15 14 0 13 -33 -2 -48 -9 -9 -9 -12 0 -12 7 0
12 -7 12 -15 0 -8 7 -15 16 -15 9 0 18 -9 21 -19 8 -32 63 -51 144 -50 41 0
97 -4 124 -9 30 -7 51 -7 53 -1 2 5 11 9 20 9 13 0 12 -3 -4 -15 -14 -11 -15
-14 -4 -15 22 0 43 16 36 28 -3 6 3 13 14 17 13 4 25 24 36 61 19 65 15 105
-6 62 -7 -16 -17 -28 -22 -28 -4 0 -8 -6 -8 -14 0 -7 -6 -19 -14 -25 -11 -10
-16 -9 -23 3 -7 12 -16 13 -51 5 -24 -5 -47 -7 -52 -4 -4 3 -20 1 -34 -5 -24
-9 -26 -7 -32 28 -3 20 -12 42 -18 47 -7 6 -17 19 -23 29 -8 15 -22 20 -54 21
-52 1 -143 44 -147 69 -5 22 92 116 119 116 20 0 89 30 89 39 0 4 -9 12 -20
19 -17 10 -22 9 -35 -12 -19 -28 -65 -52 -65 -33 0 7 6 19 13 26 10 11 8 13
-10 8 -12 -2 -24 0 -26 7 -3 8 -9 7 -20 -3 -9 -7 -24 -10 -33 -7 -11 4 -25 -3
-42 -21 l-25 -27 -28 34 c-16 18 -32 31 -35 27 -4 -4 -2 -13 5 -21 15 -18 -2
-66 -24 -66 -15 0 -19 10 -16 43 1 9 -3 17 -8 17 -6 0 -11 -11 -11 -25 0 -30
-96 -135 -123 -135 -22 0 -21 11 1 41 26 34 32 55 20 67 -8 8 -17 6 -32 -3
-21 -14 -24 -11 -66 45 -49 65 -77 79 -66 33 4 -16 18 -38 31 -50 32 -28 31
-33 -2 -33 -20 0 -35 10 -53 35 -14 19 -31 32 -38 30 -7 -3 -21 1 -32 7 -24
15 -31 9 -40 -42 -4 -22 -5 -38 -2 -35 6 6 33 -61 34 -85 0 -8 10 -25 21 -37
33 -37 13 -37 -41 -2 -69 45 -94 96 -80 164 5 28 12 59 14 71 2 11 17 39 34
63 39 53 115 90 260 126 58 14 112 29 120 34 127 68 149 83 150 104 0 13 -19
7 -37 -12z m-259 -686 c4 -14 11 -25 17 -25 6 0 32 -21 57 -47 25 -27 49 -48
53 -48 4 0 11 -3 15 -7 4 -5 15 -8 24 -8 21 0 46 -27 36 -38 -4 -4 -12 1 -17
10 -10 18 -39 14 -39 -6 0 -7 22 -37 50 -67 27 -29 50 -59 50 -66 0 -6 6 -13
13 -16 6 -2 9 -7 6 -10 -3 -4 -27 14 -55 39 -27 25 -60 52 -74 60 -15 9 -31
28 -38 43 -7 16 -26 41 -42 57 -17 16 -37 45 -46 64 -9 19 -22 47 -30 63 -13
23 -13 27 -1 27 8 0 18 -11 21 -25z m203 -395 c21 -24 21 -25 42 -6 21 19 21
19 21 -2 0 -12 8 -23 20 -27 11 -3 20 -11 20 -16 0 -5 10 -9 23 -9 15 0 6 -9
-33 -29 l-55 -29 -49 26 c-27 15 -54 35 -60 44 -6 10 -17 18 -24 18 -8 0 -12
6 -9 13 2 7 17 11 36 9 30 -3 32 -2 22 17 -6 11 -20 23 -31 26 -11 4 -20 15
-20 27 0 19 2 19 38 -8 20 -16 47 -40 59 -54z"/>
<path d="M6740 5356 c0 -7 -6 -19 -13 -25 -8 -6 -20 -29 -27 -51 -7 -22 -17
-40 -23 -40 -5 0 -7 -17 -5 -37 3 -27 -1 -43 -14 -57 -10 -11 -18 -26 -18 -34
0 -8 -6 -12 -14 -9 -8 3 -20 -1 -26 -9 -10 -11 -9 -14 4 -14 9 0 16 -6 16 -14
0 -7 7 -20 16 -27 14 -11 20 -10 40 14 13 15 28 27 34 27 5 0 10 6 10 14 0 8
7 16 15 20 8 3 15 15 15 26 0 11 5 20 10 20 6 0 10 7 10 15 0 9 6 18 14 21 7
3 22 21 32 40 13 23 28 37 47 41 29 6 37 30 12 39 -8 4 -15 12 -15 20 0 20
-33 34 -79 34 -28 0 -41 -4 -41 -14z"/>
<path d="M1259 4583 c-30 -27 -55 -51 -57 -55 -2 -5 -10 -8 -18 -8 -8 0 -14
-3 -14 -8 0 -8 -138 -152 -145 -152 -3 0 -22 -18 -42 -40 -21 -22 -41 -40 -45
-40 -3 0 -22 -15 -41 -32 -111 -103 -139 -128 -146 -128 -4 0 -16 -9 -26 -20
-17 -19 -16 -23 16 -121 18 -56 39 -103 46 -106 8 -3 64 46 138 121 68 69 127
126 130 126 4 0 12 6 20 13 7 6 52 48 100 92 48 44 122 113 163 153 l76 72 4
65 c4 58 2 66 -21 89 -40 40 -75 34 -138 -21z"/>
<path d="M188 3142 c-50 -31 -74 -97 -43 -122 8 -7 15 -22 15 -34 0 -12 5 -27
11 -33 13 -13 -12 -94 -41 -135 -20 -27 -27 -58 -12 -58 4 0 24 4 45 9 46 11
102 -2 112 -27 11 -24 6 -64 -11 -83 -20 -22 -18 -26 17 -38 39 -14 78 3 96
40 7 14 16 59 19 100 8 87 20 114 74 168 52 51 45 69 -44 115 -38 20 -78 46
-90 59 -23 25 -86 58 -108 56 -7 0 -25 -8 -40 -17z"/>
<path d="M7986 3017 c-3 -37 -2 -95 3 -130 30 -187 78 -725 69 -769 -2 -8 7
-13 22 -13 14 0 25 5 25 10 -2 40 -17 341 -26 485 -11 191 -18 236 -30 185 -4
-16 -8 -48 -9 -70 -1 -22 -8 11 -15 75 -7 63 -10 131 -8 150 2 19 -2 59 -10
89 l-14 54 -7 -66z"/>
<path d="M7104 2945 c-6 -15 2 -679 9 -768 4 -51 19 -65 53 -46 21 11 28 11
31 2 3 -7 12 -13 20 -13 14 0 15 23 10 208 -7 255 -27 512 -40 512 -7 0 -8
-85 -4 -232 3 -128 2 -253 -3 -278 -7 -42 -8 -40 -11 35 -2 44 -3 111 -1 149
1 38 -2 74 -6 80 -5 6 -12 61 -15 122 -4 62 -12 124 -18 138 -18 39 2 57 39
35 33 -19 52 -14 52 12 0 13 -7 19 -22 19 -18 0 -20 2 -8 10 20 13 9 21 -39
27 -32 4 -42 2 -47 -12z"/>
<path d="M695 2926 c-58 -26 -73 -47 -75 -106 -3 -91 -4 -88 53 -105 62 -18
94 -44 103 -83 12 -51 31 -62 106 -62 75 0 101 9 119 41 11 22 8 33 -38 139
-61 135 -182 215 -268 176z"/>
<path d="M7655 2757 c-11 -82 -11 -272 -1 -474 l9 -173 24 0 c24 0 25 2 20 53
-3 28 -12 183 -21 342 -9 160 -18 295 -20 300 -2 6 -7 -16 -11 -48z"/>
<path d="M73 2226 l-73 -9 0 -68 c0 -81 -9 -77 185 -85 77 -3 161 -12 186 -19
41 -12 187 -19 354 -19 90 1 219 15 258 30 22 8 74 14 126 14 68 0 93 4 105
16 36 35 7 54 -97 65 -46 5 -100 15 -120 24 -65 27 -135 36 -367 46 -320 14
-474 15 -557 5z"/>
<path d="M1275 1948 c-43 -24 -86 -75 -105 -125 -29 -77 -27 -209 3 -282 32
-78 65 -94 177 -87 47 3 86 10 88 16 2 5 10 10 18 10 20 0 86 38 106 61 9 10
21 19 26 19 6 0 12 6 14 13 3 8 28 13 69 14 35 1 69 2 75 2 18 1 36 56 37 109
1 36 -6 57 -25 86 -28 40 -73 76 -97 76 -8 0 -50 17 -95 39 -44 21 -99 44
-121 50 -51 14 -144 14 -170 -1z"/>
<path d="M6825 1817 c-43 -4 -81 -9 -83 -12 -2 -2 -5 -102 -7 -222 -2 -180 -1
-192 4 -68 6 151 15 194 33 161 5 -9 18 -16 28 -16 10 0 22 -4 25 -10 3 -5 26
-10 51 -10 l44 0 0 83 c0 45 -4 87 -8 92 -4 7 -35 8 -87 2z"/>
<path d="M80 1682 c0 -4 5 -13 12 -20 6 -6 8 -15 3 -19 -4 -5 -10 -2 -12 5 -8
21 -21 13 -32 -19 -6 -17 -20 -33 -31 -36 -16 -4 -20 -14 -20 -51 l0 -45 24
23 c26 23 70 30 87 13 12 -12 -3 -139 -23 -207 -7 -22 -29 -57 -50 -78 -29
-30 -38 -47 -38 -73 0 -47 14 -50 262 -50 250 1 246 -1 228 96 -7 35 -21 89
-32 119 -33 91 -40 132 -35 200 5 77 -15 125 -48 116 -69 -19 -121 -17 -188 8
-68 26 -107 33 -107 18z"/>
<path d="M8067 1673 c-13 -49 -14 -306 -2 -390 l6 -43 58 0 58 0 -4 138 c-3
75 -8 175 -11 222 l-7 84 -47 3 c-38 3 -47 0 -51 -14z"/>
<path d="M7730 1641 c0 -6 -7 -8 -15 -5 -9 4 -15 0 -15 -10 0 -9 -4 -16 -10
-16 -5 0 -10 -7 -10 -15 0 -8 -4 -15 -9 -15 -11 0 -23 -156 -15 -197 8 -40 21
-43 27 -5 3 20 4 16 6 -14 1 -45 32 -94 58 -94 11 0 14 7 10 23 -3 12 -7 95
-8 185 -1 89 -6 165 -10 168 -5 3 -9 1 -9 -5z"/>
<path d="M6845 1553 c5 -66 25 -365 25 -384 0 -8 59 -14 61 -6 8 39 8 214 -1
290 -13 116 -45 189 -63 145 -3 -8 -6 -6 -6 5 -1 9 -6 17 -12 17 -7 0 -8 -23
-4 -67z"/>
<path d="M7841 1575 c-1 -14 -4 -16 -9 -7 -15 23 -40 2 -45 -36 -5 -42 1 -270
8 -289 2 -7 20 -13 40 -13 l35 0 2 128 c2 164 2 162 -15 202 -11 25 -16 29
-16 15z"/>
<path d="M5819 1578 c-6 -15 -11 -115 -12 -265 -2 -177 -1 -183 18 -183 17 0
17 2 5 10 -10 6 -11 10 -2 10 9 0 12 24 12 85 0 63 3 83 13 80 9 -4 11 14 9
77 -2 46 -7 85 -12 88 -14 9 -24 80 -11 80 7 0 9 5 6 10 -5 9 -23 14 -26 8z"/>
<path d="M9218 1511 c-11 -15 -11 -66 -2 -277 6 -143 14 -267 18 -276 5 -11
28 -21 64 -28 32 -5 71 -15 88 -20 69 -22 64 -44 64 305 l0 315 -109 0 c-96 0
-112 -2 -123 -19z"/>
<path d="M6443 1494 c-3 -9 -1 -55 6 -103 28 -206 27 -231 -13 -231 -22 0 -23
4 -30 92 -3 50 -6 117 -6 149 0 62 -7 89 -22 89 -7 0 -8 -59 -5 -167 3 -117 2
-157 -5 -133 -5 19 -12 46 -16 60 -12 42 -27 18 -27 -42 l0 -58 95 1 c52 1 87
3 77 6 -17 4 -18 12 -12 86 4 45 11 87 15 92 12 16 18 65 9 65 -5 0 -9 17 -9
38 -1 28 -7 41 -25 55 -23 17 -26 17 -32 1z"/>
<path d="M4547 1435 c-21 -20 -22 -14 8 -73 29 -57 32 -113 10 -166 -18 -42
-41 -47 -55 -11 -5 14 -14 25 -20 25 -5 0 -10 7 -10 15 0 8 5 15 11 15 5 0 7
5 3 11 -17 29 -31 -47 -18 -98 6 -21 13 -23 65 -23 40 0 59 4 60 13 8 85 -8
269 -25 292 -12 16 -13 16 -29 0z"/>
<path d="M3885 1108 c-19 -22 -21 -26 -24 -48 0 -5 -8 -10 -16 -10 -9 0 -15
-9 -15 -24 0 -39 -34 -109 -74 -149 -31 -32 -42 -37 -81 -37 -31 0 -45 -4 -45
-13 0 -8 -11 -36 -25 -63 -27 -53 -31 -84 -15 -115 16 -28 58 -25 72 6 6 14
19 25 29 25 23 0 69 -21 69 -31 0 -19 70 -49 113 -49 37 0 47 -4 52 -21 10
-31 19 -14 26 49 l6 57 3 -65 c3 -90 18 -41 18 60 0 65 -14 152 -17 110 -1
-10 -6 -7 -15 9 -7 13 -15 19 -17 12 -3 -8 -11 -7 -27 4 -24 17 -28 57 -16
149 6 40 10 47 25 43 14 -4 20 2 24 27 4 17 2 42 -4 56 -7 17 -10 20 -10 8 -1
-10 -6 -18 -12 -18 -7 0 -9 10 -5 25 8 31 6 31 -19 3z"/>
<path d="M4860 883 c-160 -3 -203 -9 -179 -24 12 -8 12 -10 0 -18 -11 -7 -13
-31 -8 -122 3 -66 10 -115 16 -117 6 -2 11 -21 11 -43 0 -21 5 -39 10 -39 6 0
10 18 10 40 0 48 20 55 21 8 1 -49 5 -64 26 -92 14 -19 24 -23 43 -19 48 11
52 20 45 107 -3 45 -8 127 -11 184 l-5 102 -60 0 c-32 0 -59 4 -59 8 0 5 73 9
163 9 89 0 150 -2 134 -4 -15 -3 -25 -9 -22 -14 4 -5 -18 -6 -54 -2 l-61 6 7
-84 c3 -46 10 -85 15 -87 4 -2 8 -22 8 -45 0 -52 28 -168 45 -186 11 -11 14
-6 20 28 7 41 35 59 35 23 0 -11 8 -29 19 -40 18 -22 32 -29 30 -14 -1 4 2 22
6 40 5 22 13 32 26 32 17 0 19 8 19 79 0 47 -4 81 -11 83 -6 2 -10 26 -11 53
0 28 -2 73 -4 101 l-5 51 -37 -1 c-20 0 -102 -2 -182 -3z"/>
<path d="M5265 880 c39 -4 61 -7 50 -8 -17 -2 -18 -4 -5 -12 11 -7 -3 -10 -45
-10 l-60 0 3 -87 3 -88 -22 34 c-16 24 -22 47 -21 80 2 43 -10 82 -22 70 -3
-2 -2 -80 1 -172 6 -163 7 -168 27 -165 16 2 20 -2 19 -17 -2 -11 0 -31 3 -45
5 -23 6 -23 16 -6 6 11 11 94 12 200 0 99 2 147 4 106 2 -41 7 -77 12 -80 6
-3 11 -41 12 -83 2 -56 7 -77 16 -77 10 0 9 -4 -3 -16 -15 -15 -14 -18 6 -32
17 -11 23 -12 29 -2 4 7 13 9 19 6 6 -4 15 4 21 19 5 14 14 24 19 21 15 -10
23 49 12 91 -5 21 -13 93 -17 161 l-7 122 -76 -2 -76 -2 70 -6z"/>
<path d="M5480 880 l45 -7 -40 -3 -40 -3 40 -7 40 -6 -35 -5 c-33 -4 -35 -6
-38 -46 -2 -33 0 -43 12 -43 10 0 16 13 19 43 l4 42 1 -41 c2 -39 -27 -98 -42
-84 -3 3 -6 34 -8 68 -2 35 -7 60 -13 59 -14 -5 -14 -118 0 -142 6 -11 15 -51
19 -88 7 -67 6 -68 -15 -57 -19 11 -20 10 -14 -12 4 -12 12 -24 16 -26 5 -2
10 -18 10 -35 l1 -32 7 29 6 30 13 -30 14 -29 16 30 17 30 3 -37 c3 -34 5 -36
42 -40 l38 -3 7 43 c8 51 18 48 19 -5 1 -23 6 -38 16 -40 10 -3 11 -2 4 4 -13
10 -6 176 7 167 5 -3 9 0 9 5 0 6 -4 11 -10 11 -6 0 -10 44 -10 113 0 167 6
157 -109 155 -76 -1 -87 -2 -51 -8z"/>
<path d="M5805 743 c6 -194 15 -323 24 -323 7 0 7 0 19 260 4 96 10 182 12
190 4 11 -4 16 -27 18 l-33 3 5 -148z"/>
<path d="M5880 880 c0 -5 4 -10 9 -10 5 0 7 -27 4 -60 -7 -73 15 -278 33 -304
11 -16 13 -12 19 36 6 45 3 168 -6 243 -1 11 -5 -9 -9 -45 -6 -60 -7 -56 -8
43 -2 100 -3 107 -22 107 -11 0 -20 -4 -20 -10z"/>
<path d="M6008 884 c-10 -3 -18 -14 -18 -25 0 -11 7 -19 18 -19 15 -1 15 -2 1
-13 -22 -17 -30 -57 -15 -73 8 -7 25 -16 40 -20 14 -3 26 -9 26 -11 0 -3 -16
-23 -35 -44 -31 -34 -35 -45 -35 -92 1 -28 7 -77 14 -107 l13 -55 44 0 44 1
-1 164 c-1 91 -4 191 -7 223 -6 51 -4 57 12 57 17 0 19 -8 18 -82 0 -46 3
-127 7 -180 l8 -98 26 6 c35 9 36 9 33 44 -1 16 -3 89 -4 160 -1 74 -6 130
-11 130 -22 0 11 19 39 23 17 2 -2 5 -41 6 -39 0 -91 3 -115 5 -24 3 -52 2
-61 0z"/>
<path d="M6330 880 c-12 -7 -14 -26 -9 -102 3 -51 2 -111 -2 -133 -12 -59 -11
-140 2 -191 16 -61 45 -80 102 -68 l42 10 -37 24 c-28 18 -37 32 -37 50 1 17
3 19 6 8 2 -10 9 -18 14 -18 12 0 12 27 -1 35 -15 9 -12 25 4 25 7 0 19 7 27
16 16 20 75 11 104 -16 21 -19 21 -19 17 53 -2 40 -9 78 -15 85 -8 10 -7 16 2
21 9 6 11 26 6 77 -4 38 -9 71 -11 73 -10 11 30 31 63 32 33 1 30 3 -17 9 -92
13 -245 19 -260 10z"/>
<path d="M6653 744 c6 -132 11 -160 25 -137 4 6 7 -12 7 -40 1 -85 26 -207 43
-207 10 0 12 6 7 23 -4 12 -11 78 -16 147 -7 106 -26 339 -28 348 -1 1 -11 2
-22 2 -21 0 -21 -3 -16 -136z"/>
<path d="M6737 874 c-8 -8 -9 -357 -1 -399 4 -24 13 -36 32 -43 35 -13 130
-22 165 -15 l27 5 0 108 c0 59 -3 161 -6 227 l-7 120 -39 1 c-32 2 -40 -2 -47
-20 l-8 -23 -7 23 c-6 19 -14 22 -55 22 -26 0 -50 -3 -54 -6z"/>
<path d="M4458 833 c-16 -4 -18 -20 -18 -159 0 -147 1 -154 20 -154 13 0 20
-7 20 -20 0 -11 7 -20 15 -20 8 0 20 -9 27 -20 7 -11 18 -20 24 -20 12 0 34
42 34 65 0 7 5 15 12 17 16 6 15 250 -1 291 -10 25 -14 27 -63 26 -29 -1 -61
-3 -70 -6z"/>
<path d="M1175 681 c-136 -23 -329 -104 -435 -183 -75 -57 -76 -58 -93 -109
-16 -49 -51 -73 -91 -63 -49 12 -57 33 -63 164 l-6 122 -56 -6 c-31 -3 -140
-5 -243 -6 l-188 0 0 -224 0 -224 143 -7 c78 -4 156 -9 172 -12 66 -12 406
-14 459 -3 71 15 80 25 64 83 -15 58 -3 88 46 111 33 15 62 17 279 11 222 -6
397 -18 439 -31 9 -3 20 -14 23 -25 8 -24 53 -72 83 -88 34 -18 108 -8 132 19
3 3 44 32 93 64 48 31 87 64 87 72 0 8 -4 14 -9 14 -5 0 -11 9 -14 19 -2 11
-26 28 -53 40 -27 12 -51 25 -54 29 -37 49 -201 155 -295 189 -117 43 -305 63
-420 44z"/>
<path d="M9397 670 c-16 -5 -52 -10 -80 -12 -77 -6 -77 -7 -67 -292 6 -182 11
-241 21 -247 8 -5 51 -9 97 -9 l82 0 0 285 c0 222 -3 285 -12 284 -7 0 -26 -5
-41 -9z"/>
<path d="M4100 75 c0 -67 2 -75 19 -75 12 0 21 8 24 23 4 22 4 22 6 -2 1 -24
2 -24 78 -17 43 4 80 10 83 14 3 4 111 7 240 7 129 1 274 4 322 9 l86 8 4 38
3 38 -40 1 c-154 3 -564 21 -582 26 -13 3 -23 1 -23 -4 0 -6 19 -12 43 -14 40
-3 40 -4 -10 -5 -30 -1 -53 2 -53 8 0 13 -87 13 -95 0 -9 -14 -42 -12 -49 3
-5 10 -7 10 -12 0 -8 -18 -24 -16 -24 2 0 8 -4 15 -10 15 -6 0 -10 -32 -10
-75z"/>
<path d="M5360 81 c0 -6 17 -12 38 -12 20 -1 51 -5 67 -9 20 -6 7 -7 -40 -4
-50 2 -61 1 -40 -5 17 -5 22 -9 13 -10 -20 -1 -21 -3 -12 -25 5 -14 28 -16
150 -16 l144 0 0 25 c0 14 0 28 0 33 1 7 -47 12 -227 26 -64 5 -93 4 -93 -3z"/>
</g>
</svg>
